<?xml version="1.0" standalone="no"?>
<!DOCTYPE svg PUBLIC "-//W3C//DTD SVG 20010904//EN"
 "http://www.w3.org/TR/2001/REC-SVG-20010904/DTD/svg10.dtd">
<svg version="1.0" xmlns="http://www.w3.org/2000/svg"
 width="700.000000pt" height="700.000000pt" viewBox="0 0 700.000000 700.000000"
 preserveAspectRatio="xMidYMid meet">
<metadata>
Created by potrace 1.11, written by Peter Selinger 2001-2013
</metadata>
<g transform="translate(0.000000,700.000000) scale(0.100000,-0.100000)"
fill="#000000" stroke="none">
<path d="M3192 6435 c-17 -14 -33 -39 -37 -55 -7 -33 17 -94 43 -106 9 -5 62
-11 117 -14 l100 -5 3 -1209 2 -1208 -107 101 c-60 55 -331 321 -603 590
l-495 489 86 89 c93 94 109 118 109 157 0 35 -45 84 -85 92 -44 8 -64 -4 -169
-103 l-89 -84 -36 33 c-92 83 -201 193 -201 202 0 5 43 53 95 107 86 87 95
100 95 133 0 32 -9 47 -57 98 -93 96 -146 112 -205 59 -39 -35 -43 -85 -11
-130 l22 -29 -207 -203 c-114 -112 -215 -215 -224 -229 -28 -40 -23 -77 16
-116 63 -63 110 -47 231 75 44 45 84 81 90 81 6 0 62 -52 125 -115 l114 -115
-102 -103 c-94 -95 -102 -107 -102 -142 0 -35 8 -46 77 -116 43 -43 90 -80
104 -84 41 -10 96 18 115 58 20 41 14 75 -20 114 l-25 28 51 52 51 52 369
-362 c203 -199 498 -489 656 -643 l287 -282 -340 -333 c-187 -183 -393 -385
-457 -447 l-116 -114 -29 19 c-143 101 -375 142 -558 99 -89 -21 -216 -83
-280 -136 -116 -97 -207 -241 -239 -380 -32 -135 -15 -316 42 -439 l20 -43
-21 -36 c-26 -45 -29 -133 -5 -177 56 -105 177 -152 274 -105 46 23 48 23 93
5 116 -45 176 -57 286 -58 87 -1 127 4 190 21 205 59 362 189 451 377 54 113
67 181 62 320 -6 135 -30 221 -96 329 l-36 60 400 392 399 392 3 -661 c1 -363
0 -662 -2 -664 -2 -2 -32 -11 -67 -19 -133 -31 -273 -118 -371 -231 -166 -192
-208 -482 -103 -718 70 -160 217 -302 380 -367 48 -19 60 -29 69 -56 17 -51
65 -103 114 -124 116 -51 264 17 288 134 5 20 17 30 53 43 128 47 272 163 342
275 78 126 109 231 109 377 0 193 -61 335 -204 478 -102 102 -199 159 -324
191 l-72 18 0 664 0 664 258 -250 c141 -138 322 -316 401 -395 l144 -145 -20
-29 c-100 -141 -142 -378 -98 -548 80 -310 360 -525 685 -525 105 0 218 23
289 60 l41 20 42 -21 c105 -54 248 1 290 110 16 42 11 120 -11 163 l-19 40 23
51 c53 122 70 298 40 427 -25 108 -96 238 -173 318 -112 116 -237 181 -401
209 -162 27 -340 -6 -475 -88 l-61 -37 -180 176 c-99 97 -303 299 -454 447
l-274 270 394 388 c217 214 512 503 656 644 l263 255 72 -27 c97 -37 237 -45
324 -20 125 36 288 149 343 239 38 61 30 80 -67 178 -95 95 -120 105 -181 74
-57 -30 -65 -93 -20 -156 l31 -42 -23 -24 c-13 -14 -48 -37 -78 -52 -47 -23
-69 -27 -136 -27 -72 0 -87 4 -143 35 -70 37 -120 89 -160 165 -23 43 -27 62
-27 135 0 90 17 140 69 205 l24 29 41 -37 c29 -26 50 -37 72 -37 90 0 139 90
88 161 -11 16 -52 56 -90 89 -106 91 -149 84 -261 -42 -83 -93 -111 -143 -139
-243 -41 -151 -12 -291 94 -448 11 -17 -12 -43 -220 -245 -128 -125 -399 -391
-603 -591 l-370 -363 0 1006 0 1006 115 0 c76 0 127 5 149 14 70 29 88 105 37
157 l-29 29 -136 0 -136 0 0 105 0 105 218 0 c242 0 251 2 279 67 12 31 12 38
-4 71 -10 20 -29 42 -43 49 -19 10 -130 13 -442 13 l-416 0 -30 -25z m-984
-3836 c75 -25 169 -86 218 -142 20 -23 51 -73 70 -112 131 -275 -12 -592 -308
-682 -69 -21 -216 -21 -284 0 -162 49 -294 175 -341 327 -22 73 -22 217 0 288
40 128 137 239 260 298 120 57 254 65 385 23z m2944 4 c160 -47 290 -184 333
-350 65 -250 -88 -514 -341 -589 -77 -23 -210 -23 -287 -1 -112 34 -221 112
-278 200 -160 247 -75 578 181 706 121 61 262 73 392 34z m-1492 -812 c90 -26
155 -65 222 -133 95 -96 138 -201 138 -338 0 -172 -77 -314 -223 -410 -329
-215 -777 21 -777 410 0 326 323 563 640 471z"/>
</g>
</svg>
