<?xml version="1.0" encoding="utf-8"?>
<!-- Generator: Adobe Illustrator 21.0.0, SVG Export Plug-In . SVG Version: 6.00 Build 0)  -->
<svg version="1.1" xmlns="http://www.w3.org/2000/svg" xmlns:xlink="http://www.w3.org/1999/xlink" x="0px" y="0px"
	 viewBox="0 0 414 218.6600037" enable-background="new 0 0 414 218.6600037" xml:space="preserve">
<g id="Layer_3" display="none">
	<g display="inline">
		
			<rect x="270.7802124" y="96.5726776" transform="matrix(-1.836970e-16 1 -1 -1.836970e-16 485.8186951 -271.0752258)" fill="none" stroke="#BBBDBF" stroke-width="0.2834646" stroke-miterlimit="10" width="215.3335114" height="21.5981083"/>
		<g>
			
				<rect x="-74.7895203" y="96.5726776" transform="matrix(-1.836970e-16 1 -1 -1.836970e-16 140.2489624 74.4944916)" fill="none" stroke="#BBBDBF" stroke-width="0.2834646" stroke-miterlimit="10" width="215.3335114" height="21.5981083"/>
		</g>
		<g>
			
				<rect x="-53.1914139" y="96.5726776" transform="matrix(-1.836970e-16 1 -1 -1.836970e-16 161.8470764 52.8963852)" fill="none" stroke="#BBBDBF" stroke-width="0.2834646" stroke-miterlimit="10" width="215.3335114" height="21.5981083"/>
		</g>
		<g>
			
				<rect x="-31.5933056" y="96.5726776" transform="matrix(-1.836970e-16 1 -1 -1.836970e-16 183.4451904 31.2982788)" fill="none" stroke="#BBBDBF" stroke-width="0.2834646" stroke-miterlimit="10" width="215.3335114" height="21.5981083"/>
		</g>
		<g>
			
				<rect x="-9.9951982" y="96.5726776" transform="matrix(-1.836970e-16 1 -1 -1.836970e-16 205.0432892 9.7001705)" fill="none" stroke="#BBBDBF" stroke-width="0.2834646" stroke-miterlimit="10" width="215.3335114" height="21.5981083"/>
		</g>
		<g>
			
				<rect x="11.6029091" y="96.5726776" transform="matrix(-1.836970e-16 1 -1 -1.836970e-16 226.6414032 -11.8979368)" fill="none" stroke="#BBBDBF" stroke-width="0.2834646" stroke-miterlimit="10" width="215.3335114" height="21.5981083"/>
		</g>
		<g>
			
				<rect x="33.2010155" y="96.5726776" transform="matrix(-1.836970e-16 1 -1 -1.836970e-16 248.239502 -33.4960442)" fill="none" stroke="#BBBDBF" stroke-width="0.2834646" stroke-miterlimit="10" width="215.3335114" height="21.5981083"/>
		</g>
		<g>
			
				<rect x="54.7991257" y="96.5726776" transform="matrix(-1.836970e-16 1 -1 -1.836970e-16 269.837616 -55.0941505)" fill="none" stroke="#BBBDBF" stroke-width="0.2834646" stroke-miterlimit="10" width="215.3335114" height="21.5981083"/>
		</g>
		<g>
			
				<rect x="76.3972321" y="96.5726776" transform="matrix(-1.836970e-16 1 -1 -1.836970e-16 291.43573 -76.6922607)" fill="none" stroke="#BBBDBF" stroke-width="0.2834646" stroke-miterlimit="10" width="215.3335114" height="21.5981083"/>
		</g>
		<g>
			
				<rect x="97.9953384" y="96.5726776" transform="matrix(-1.836970e-16 1 -1 -1.836970e-16 313.033844 -98.2903671)" fill="none" stroke="#BBBDBF" stroke-width="0.2834646" stroke-miterlimit="10" width="215.3335114" height="21.5981083"/>
		</g>
		<g>
			
				<rect x="119.5934448" y="96.5726776" transform="matrix(-1.836970e-16 1 -1 -1.836970e-16 334.6319275 -119.8884735)" fill="none" stroke="#BBBDBF" stroke-width="0.2834646" stroke-miterlimit="10" width="215.3335114" height="21.5981083"/>
		</g>
		<g>
			
				<rect x="141.1915588" y="96.5726776" transform="matrix(-1.836970e-16 1 -1 -1.836970e-16 356.2300415 -141.4865875)" fill="none" stroke="#BBBDBF" stroke-width="0.2834646" stroke-miterlimit="10" width="215.3335114" height="21.5981083"/>
		</g>
		<g>
			
				<rect x="162.7896576" y="96.5726776" transform="matrix(-1.836970e-16 1 -1 -1.836970e-16 377.8281555 -163.0846863)" fill="none" stroke="#BBBDBF" stroke-width="0.2834646" stroke-miterlimit="10" width="215.3335114" height="21.5981083"/>
		</g>
		<g>
			
				<rect x="184.3877716" y="96.5726776" transform="matrix(-1.836970e-16 1 -1 -1.836970e-16 399.4262695 -184.6828003)" fill="none" stroke="#BBBDBF" stroke-width="0.2834646" stroke-miterlimit="10" width="215.3335114" height="21.5981083"/>
		</g>
		<g>
			
				<rect x="205.9858704" y="96.5726776" transform="matrix(-1.836970e-16 1 -1 -1.836970e-16 421.024353 -206.280899)" fill="none" stroke="#BBBDBF" stroke-width="0.2834646" stroke-miterlimit="10" width="215.3335114" height="21.5981083"/>
		</g>
		<g>
			
				<rect x="227.5839844" y="96.5726776" transform="matrix(-1.836970e-16 1 -1 -1.836970e-16 442.622467 -227.8790131)" fill="none" stroke="#BBBDBF" stroke-width="0.2834646" stroke-miterlimit="10" width="215.3335114" height="21.5981083"/>
		</g>
		<g>
			
				<rect x="249.1820984" y="96.5726776" transform="matrix(-1.836970e-16 1 -1 -1.836970e-16 464.2205811 -249.4771271)" fill="none" stroke="#BBBDBF" stroke-width="0.2834646" stroke-miterlimit="10" width="215.3335114" height="21.5981083"/>
		</g>
	</g>
	<g display="inline">
		<g>
			
				<rect x="22.0781937" y="-0.2950274" transform="matrix(-1 -1.224647e-16 1.224647e-16 -1 411.3242188 20.6845551)" fill="none" stroke="#BBBDBF" stroke-width="0.2834646" stroke-miterlimit="10" width="367.1678162" height="21.2746086"/>
		</g>
		<g>
			
				<rect x="22.0781937" y="20.9795818" transform="matrix(-1 -1.224647e-16 1.224647e-16 -1 411.3242188 63.5572701)" fill="none" stroke="#BBBDBF" stroke-width="0.2834646" stroke-miterlimit="10" width="367.1678162" height="21.5981083"/>
		</g>
		<g>
			
				<rect x="22.0781937" y="42.5776901" transform="matrix(-1 -1.224647e-16 1.224647e-16 -1 411.3242188 106.7534866)" fill="none" stroke="#BBBDBF" stroke-width="0.2834646" stroke-miterlimit="10" width="367.1678162" height="21.5981083"/>
		</g>
		<g>
			
				<rect x="22.0781937" y="64.1757965" transform="matrix(-1 -1.224647e-16 1.224647e-16 -1 411.3242188 149.949707)" fill="none" stroke="#BBBDBF" stroke-width="0.2834646" stroke-miterlimit="10" width="367.1678162" height="21.5981083"/>
		</g>
		<g>
			
				<rect x="22.0781937" y="85.7739029" transform="matrix(-1 -1.224647e-16 1.224647e-16 -1 411.3242188 193.1459198)" fill="none" stroke="#BBBDBF" stroke-width="0.2834646" stroke-miterlimit="10" width="367.1678162" height="21.5981083"/>
		</g>
		<g>
			
				<rect x="22.0781937" y="107.3720093" transform="matrix(-1 -1.224647e-16 1.224647e-16 -1 411.3242188 236.3421326)" fill="none" stroke="#BBBDBF" stroke-width="0.2834646" stroke-miterlimit="10" width="367.1678162" height="21.5981083"/>
		</g>
		<g>
			
				<rect x="22.0781937" y="128.9701233" transform="matrix(-1 -1.224647e-16 1.224647e-16 -1 411.3242188 279.5383606)" fill="none" stroke="#BBBDBF" stroke-width="0.2834646" stroke-miterlimit="10" width="367.1678162" height="21.5981083"/>
		</g>
		<g>
			
				<rect x="22.0781937" y="150.568222" transform="matrix(-1 -1.224647e-16 1.224647e-16 -1 411.3242188 322.7345581)" fill="none" stroke="#BBBDBF" stroke-width="0.2834646" stroke-miterlimit="10" width="367.1678162" height="21.5981083"/>
		</g>
		<g>
			
				<rect x="22.0781937" y="172.1663361" transform="matrix(-1 -1.224647e-16 1.224647e-16 -1 411.3242188 365.6068115)" fill="none" stroke="#BBBDBF" stroke-width="0.2834646" stroke-miterlimit="10" width="367.1678162" height="21.274128"/>
		</g>
		<g>
			
				<rect x="22.0781937" y="193.4404602" transform="matrix(-1 -1.224647e-16 1.224647e-16 -1 411.3242188 408.4790344)" fill="none" stroke="#BBBDBF" stroke-width="0.2834646" stroke-miterlimit="10" width="367.1678162" height="21.5981083"/>
		</g>
	</g>
</g>
<g id="Layer_4" display="none">
	<rect x="176.7097931" y="107.70784" display="inline" fill="#25A9E0" width="217.8240662" height="21.5981083"/>
	<rect x="176.7097931" y="86.1097336" display="inline" fill="#25A9E0" width="217.8240662" height="21.5981083"/>
	<rect x="176.7097931" y="64.5116272" display="inline" fill="#25A9E0" width="217.8240662" height="21.5981083"/>
	<rect x="176.7097931" y="42.913517" display="inline" fill="#25A9E0" width="217.8240662" height="21.5981083"/>
	<rect x="176.7097931" y="25.5199642" display="inline" fill="#25A9E0" width="217.8240662" height="17.3935509"/>
	<rect x="176.7097931" y="8.208849" display="inline" fill="#25A9E0" width="217.8240662" height="17.3935509"/>
</g>
<g id="Layer_2" display="none">
	
		<rect x="22.0786552" y="128.9754791" transform="matrix(-1 -1.224647e-16 1.224647e-16 -1 65.7544785 279.5490723)" display="inline" fill="#D0D2D3" width="21.5971661" height="21.5981083"/>
</g>
<g id="Layer_1">
	<g>
		<path fill="#E0B36F" d="M65.3462296,149.6777954c-1.8829308-0.2235718-1.9476891-0.6380005-1.9476891-3.9876709v-11.4847412
			c0-3.3500977,0.0647583-3.8287964,1.9476891-4.0200195l0.6818237-0.0639038
			c0.194397-0.1278076,0.1296387-0.7019043-0.0648193-0.7977295c-1.4612427,0.0639038-2.5646935,0.0958252-3.8306847,0.0958252
			c-1.3306885,0-2.4342041-0.0319214-3.9273682-0.0958252c-0.194458,0.0958252-0.2592163,0.6699219-0.0648193,0.7977295
			l0.6170044,0.0639038c1.914856,0.1912231,1.9796753,0.6699219,1.9796753,4.0200195v3.6682129
			c0,0.9894409-0.0648193,1.0213623-1.6228027,1.0213623h-9.2832642c-1.5580444,0-1.6228027-0.0319214-1.6228027-1.0213623
			v-3.6682129c0-3.3500977,0.0647583-3.8287964,1.9476929-4.0200195l0.6170044-0.0639038
			c0.194397-0.1278076,0.1296387-0.7019043-0.0656738-0.7977295c-1.3955688,0.0639038-2.4990234,0.0958252-3.7650146,0.0958252
			c-1.3955078,0-2.4990234-0.0638428-4.0898438-0.0958252c-0.194397,0.0958252-0.2592163,0.6699219-0.0648193,0.7977295
			l0.8442383,0.0639038c1.6876221,0.1273193,1.914917,0.6699219,1.914917,4.0200195v11.4847412
			c0,3.3496704-0.0648193,3.6682129-1.8829346,3.9876709l-0.5512695,0.0958252
			c-0.1953735,0.1917114-0.1296387,0.7019043,0.0647583,0.7977295c1.2659302-0.0319214,2.3694458-0.0958252,3.7649536-0.0958252
			c1.2659912,0,2.3694458,0.0319214,4.1228027,0.0958252c0.194397-0.0958252,0.2592163-0.6699219,0.0647583-0.7977295
			l-0.9418945-0.0958252c-1.8172607-0.1916504-1.9796753-0.6380005-1.9796753-3.9876709v-4.4987793
			c0-0.956543,0.0647583-1.0203857,1.6228027-1.0203857h9.2832642c1.5579834,0,1.6228027,0.0638428,1.6228027,1.0203857v4.4987793
			c0,3.3496704,0,3.6682129-1.9796753,3.9876709l-0.6170044,0.0958252c-0.194397,0.1917114-0.1296387,0.7019043,0.0648193,0.7977295
			c1.4283447-0.0639038,2.5966797-0.0958252,3.9273682-0.0958252c1.2659912,0,2.369442,0.0319214,3.9283409,0.0958252
			c0.194458-0.0958252,0.2592163-0.6699219,0.0648193-0.7977295L65.3462296,149.6777954z"/>
		<path fill="#E0B36F" d="M75.0146866,137.4592285c-3.8306885,0-6.9138184,2.87146-6.9138184,6.8910522
			c0,3.9876709,2.9206543,6.5715942,6.6536865,6.5715942c4.0570068,0,6.8490601-2.87146,6.8490601-6.8591309
			C81.6036148,140.1389771,78.649147,137.4592285,75.0146866,137.4592285z M75.0795059,149.965332
			c-2.8568115,0-4.187561-3.1270142-4.187561-6.0303345c0-3.5084839,1.5908813-5.5192261,3.7330322-5.5192261
			c3.0831299,0,4.1865845,3.4454956,4.1865845,6.1572266C78.8115616,147.0300293,77.9354019,149.965332,75.0795059,149.965332z"/>
		<path fill="#E0B36F" d="M89.2275162,149.6777954c-1.1682739-0.159729-1.2330933-0.4782715-1.2330933-2.7755737v-15.0899658
			c0-1.4037476,0.0648193-2.9987183,0.0976562-3.9561768c-0.0647583-0.1273193-0.1953125-0.1912231-0.3248901-0.1912231
			c-1.1682739,0.6060791-2.6943359,1.0847778-3.5057373,1.3399048c-0.1615601,0.0958252-0.1615601,0.5426025,0,0.6380005
			l0.3248901,0.1916504c0.973877,0.5740967,1.0067139,0.7653198,1.0067139,2.6477661v14.4200439
			c0,2.2973022-0.0328369,2.6158447-1.2339478,2.7755737l-0.7466431,0.0958252
			c-0.2272339,0.159729-0.1624146,0.7019043,0.0648193,0.7977295c0.973877-0.0639038,1.9477539-0.0958252,3.1160278-0.0958252
			c1.1363525,0,2.0773315,0.0319214,3.1488647,0.0958252c0.2272949-0.0958252,0.2920532-0.6380005,0.0648193-0.7977295
			L89.2275162,149.6777954z"/>
		<path fill="#E0B36F" d="M101.9827652,149.4542236h0.1295776c0.0648193,0.1277466,0.0648193,0.5111084,0.0648193,0.9893799
			v0.5421143c0,0.159729,0.1624756,0.2555542,0.3568726,0.2555542c0.9090576-0.3513794,2.9216309-0.8296509,4.2843018-1.0213013
			c0.2929688-0.159729,0.2601318-0.956543,0.0328369-1.0204468c-0.4864502,0.1588135-1.0386353,0.3185425-1.3955078,0.3185425
			c-0.9090576,0-0.9419556-1.1801147-0.9419556-3.7001343v-14.0056763c0-1.4037476,0.0657349-2.9987183,0.0976562-3.9561768
			c-0.0647583-0.1273193-0.194397-0.1912231-0.3239746-0.1912231c-1.1691895,0.6060791-2.6943359,1.0847778-3.5057373,1.3399048
			c-0.1624756,0.0958252-0.1624756,0.5426025,0,0.6380005l0.3239746,0.1916504
			c0.973877,0.5740967,1.0067139,0.7653198,1.0067139,2.6477661v4.8173218c0,0.2556152-0.0328369,0.4463501-0.194397,0.4463501
			c-0.3577881-0.1268921-1.0715332-0.2866211-2.1749878-0.2866211c-4.4147949,0-7.8548584,2.87146-7.8548584,7.3373413
			c0,3.3496704,2.4013672,6.1253052,6.0047607,6.1253052C99.4509048,150.921875,100.5543594,150.4116211,101.9827652,149.4542236z
			 M94.5495987,143.7442017c0-2.7755737,1.5251465-5.2964478,4.4786987-5.2964478
			c1.2659302,0,2.2398071,0.6699219,2.7271729,1.3398438c0.2272949,0.319458,0.3568726,0.6069336,0.3568726,1.2449341v6.2840576
			c0,0.5111694-0.0328369,0.9893799-0.2272339,1.1810913c-0.5193481,0.5101929-1.6228027,0.8926392-2.4990234,0.8926392
			C96.2043228,149.3903198,94.5495987,146.6466675,94.5495987,143.7442017z"/>
		<path fill="#E0B36F" d="M114.7681046,149.7736206l-0.6817627-0.0958252
			c-1.1682739-0.159729-1.2330933-0.4782715-1.2330933-2.7755737v-5.7427979c0-1.3079224,0.0648193-2.838562,0.1295776-3.9557495
			c-0.0328369-0.1277466-0.1624756-0.1907349-0.3248901-0.1907349c-0.7466431,0.4782715-2.5966797,1.3079224-3.3433228,1.562561
			c-0.1615601,0.0958252-0.1615601,0.4472656-0.0319214,0.5740967l0.2920532,0.1916504
			c0.8762207,0.5741577,0.8762207,0.7338257,0.8762207,1.9779053v5.5830688c0,2.2973022-0.0319214,2.6158447-1.2330933,2.7755737
			l-0.6817627,0.0958252c-0.2272949,0.159729-0.1624756,0.7019043,0.0647583,0.7977295
			c0.9090576-0.0639038,1.8829346-0.0958252,3.0512085-0.0958252c1.1363525,0,2.0773926,0.0319214,3.0512695,0.0958252
			C114.9305801,150.4755249,114.9953995,149.9333496,114.7681046,149.7736206z"/>
		<path fill="#E0B36F" d="M111.4248428,133.8859863c0.9090576,0,1.720459-0.5102539,1.720459-1.6588745
			c0-0.8935547-0.6489258-1.6593628-1.6228027-1.6593628s-1.7533569,0.6704102-1.7533569,1.7227783
			C109.7691422,133.1521606,110.4190445,133.8859863,111.4248428,133.8859863z"/>
		<path fill="#E0B36F" d="M131.1258392,149.6777954c-1.1682739-0.159729-1.2330322-0.4782715-1.2330322-2.7755737v-5.4872437
			c0-2.1375732-1.1044312-3.9557495-3.7978592-3.9557495c-1.6556396,0-3.1807861,0.7977295-4.5444336,1.6264648
			c-0.2272339,0-0.3568726-0.1588135-0.3568726-0.3504639c0-0.2874756,0-0.7657471,0.0648193-1.4995728
			c-0.0648193-0.159729-0.2272949-0.2227173-0.3568726-0.2227173c-0.6498413,0.4782715-2.499939,1.3079224-3.246521,1.562561
			c-0.1615601,0.0958252-0.1615601,0.4472656-0.0319824,0.5740967l0.2921143,0.1916504
			c0.8761597,0.5741577,0.8761597,0.7338257,0.8761597,1.9779053v5.5830688c0,2.2973022-0.0319214,2.6158447-1.2330322,2.7755737
			l-0.6818237,0.0958252c-0.2272949,0.159729-0.1624756,0.7019043,0.0648193,0.7977295
			c0.9090576-0.0639038,1.8829346-0.0958252,3.0512085-0.0958252c1.1363525,0,2.0773315,0.0319214,2.9535522,0.0958252
			c0.2272339-0.0958252,0.2920532-0.6380005,0.0648193-0.7977295l-0.5841675-0.0958252
			c-1.1682739-0.1916504-1.2330933-0.4782715-1.2330933-2.7755737v-4.8812256c0-0.9245605,0.0648193-1.3717651,0.4865112-1.9139404
			c0.4545288-0.6060791,1.526062-1.116272,2.7591553-1.116272c2.2069092,0,3.0512085,1.3399048,3.0512085,3.15802v4.753418
			c0,2.2973022-0.0328979,2.5839233-1.2340088,2.7755737l-0.6160889,0.0958252
			c-0.2272949,0.159729-0.1624756,0.7019043,0.0648193,0.7977295c0.8762207-0.0639038,1.8500366-0.0958252,3.0183792-0.0958252
			c1.1362915,0,2.0773315,0.0319214,3.0512085,0.0958252c0.2272339-0.0958252,0.2920532-0.6380005,0.0647583-0.7977295
			L131.1258392,149.6777954z"/>
		<path fill="#E0B36F" d="M138.9451141,159.0568848c4.2194824,0,8.0821533-2.5519409,8.0821533-6.0294189
			c0-3.1899414-2.7263184-3.5093994-4.5444336-3.5093994c-1.4274902,0-2.7582397,0.0958252-3.8626099,0.0958252
			c-1.5252075,0-2.2717896-0.6060181-2.2717896-1.3398438c0-0.9254761,1.0386963-1.5315552,1.4284058-1.7542725
			c0.3897095,0.0319824,0.8433838,0.0949707,1.4284058,0.0949707c4.1218262,0,5.4525757-2.8705444,5.4525757-5.0720215
			c0-0.5421143,0-1.0852051-0.0648193-1.6273193h2.3366089c0.4873657-0.0639038,0.5521851-1.1482544,0.1953125-1.3079834h-2.6295776
			c-0.7137451,0-0.940979-0.0638428-1.9796753-0.5101929c-0.746582-0.319458-1.8829346-0.6380005-3.1160278-0.6380005
			c-2.8887329,0-5.2910156,2.0737305-5.2910156,4.8173218c0,2.0418091,1.3307495,3.2858276,2.4342041,3.8599243
			c0,0.159729-0.1615601,0.4152832-0.3239746,0.6060181c-0.5522461,0.5740967-1.1682739,1.1171875-1.72052,1.4676514
			c-0.3568726,0.2555542-0.4864502,0.3833618-0.4864502,0.5421753c0,1.1171875,1.1034546,2.2014771,2.3693848,2.5209351
			c0.2921143,0.1907349,0.0319824,0.4782715-0.2600708,0.7648315c-0.7466431,0.7338257-1.6557007,1.5634766-2.2069702,2.1375732
			c-0.2272949,0.2556152-0.3568726,0.6699829-0.3568726,1.1810913
			C133.5573578,156.9512329,134.9528656,159.0568848,138.9451141,159.0568848z M139.4644623,138.3847656
			c1.9796753,0,2.8887329,1.8181152,2.8887329,3.9876709c0,1.9459229-0.9090576,3.317688-2.661499,3.317688
			c-1.5579834,0-2.9535522-1.4676514-2.9535522-3.7329712C136.7381439,139.7875977,137.9064789,138.3847656,139.4644623,138.3847656
			z M137.5496063,151.8473511c0.4545288-0.2875366,1.7523804-0.3513794,2.7910767-0.3513794h1.1034546
			c2.3374634,0,3.7010498,0.8296509,3.7010498,2.7755737c0,1.8190308-1.9157715,3.4135132-4.8045044,3.4135132
			c-2.9535522,0-4.3491211-1.4356689-4.3491211-3.157959C135.9915619,153.3150024,136.7701263,152.3256226,137.5496063,151.8473511z
			"/>
		<path fill="#E0B36F" d="M166.7255096,129.4195557h-5.9719238c-1.2987671,0-2.4022217-0.0319214-3.7658691-0.0958252
			c-0.194397,0.0958252-0.2592163,0.6699219-0.0647583,0.7977295l0.5192871,0.0639038
			c1.8829346,0.2231445,1.9477539,0.6699219,1.9477539,4.0200195v11.4847412c0,3.3496704-0.0648193,3.7640991-1.9477539,3.9876709
			l-0.8114014,0.0958252c-0.194397,0.1917114-0.1295776,0.7019043,0.0648193,0.7977295
			c1.526062-0.0639038,2.6295166-0.0958252,4.0579224-0.0958252c1.2979126,0,2.4013672,0.0319214,4.3162842,0.0958252
			c0.1953125-0.0958252,0.2601318-0.6699219,0.0656738-0.7977295l-1.1043701-0.0958252
			c-1.914856-0.159729-1.9796753-0.6380005-1.9796753-3.9876709v-4.4348755c0-0.8287354,0.0976562-0.8607178,1.0715332-0.8607178
			h2.2069702c1.2330322,0,2.0444946,0.0319824,2.4990234,0.1588135c0.6170044,0.1917114,0.8761597,0.6380005,1.0386353,1.2130127
			l0.3249512,1.2440186c0.2272339,0.1907959,0.7137451,0.1907959,0.8433228,0c0-0.7338257-0.1295776-1.9458618-0.1295776-3.0949707
			c0-1.1801758,0.1295776-2.4561768,0.1295776-3.2219238c-0.1295776-0.1916504-0.6808472-0.1916504-0.8433228,0l-0.2920532,1.276001
			c-0.1953735,0.8296509-0.4545288,0.9893799-0.8114014,1.1162109c-0.3897705,0.1278076-1.4284058,0.1917114-2.7591553,0.1917114
			h-2.2069702c-0.973877,0-1.0715332,0-1.0715332-0.8616333v-6.7312622c0-1.2120972,0-1.276001,0.973877-1.276001h1.9796753
			c1.3635864,0,2.4351196,0,3.1488647,0.1912231c1.6228027,0.4147949,2.0125732,1.5953979,2.2717896,3.0315552
			c0.2272339,0.1907959,0.6817627,0.0949707,0.7794189-0.0958252c-0.0647583-1.2130127-0.0976562-2.7440796-0.0976562-4.211731
			C170.6858368,129.4195557,168.8029022,129.4195557,166.7255096,129.4195557z"/>
		<path fill="#E0B36F" d="M174.0911713,132.2905273c0,0.8616333,0.6498413,1.595459,1.6556396,1.595459
			c0.9091187,0,1.72052-0.5102539,1.72052-1.6588745c0-0.8935547-0.6489868-1.6593628-1.6228638-1.6593628
			C174.8706512,130.567749,174.0911713,131.2381592,174.0911713,132.2905273z"/>
		<path fill="#E0B36F" d="M179.0901337,149.7736206l-0.6818237-0.0958252
			c-1.1682739-0.159729-1.2330933-0.4782715-1.2330933-2.7755737v-5.7427979c0-1.3079224,0.0648193-2.838562,0.1296387-3.9557495
			c-0.0328979-0.1277466-0.1624756-0.1907349-0.3249512-0.1907349c-0.746582,0.4782715-2.5966797,1.3079224-3.3432617,1.562561
			c-0.1615601,0.0958252-0.1615601,0.4472656-0.0319824,0.5740967l0.2921143,0.1916504
			c0.8761597,0.5741577,0.8761597,0.7338257,0.8761597,1.9779053v5.5830688c0,2.2973022-0.0319214,2.6158447-1.2330322,2.7755737
			l-0.6818237,0.0958252c-0.2272949,0.159729-0.1624756,0.7019043,0.0648193,0.7977295
			c0.9090576-0.0639038,1.8829346-0.0958252,3.0512085-0.0958252c1.1363525,0,2.0773315,0.0319214,3.0512085,0.0958252
			C179.2526093,150.4755249,179.3173676,149.9333496,179.0901337,149.7736206z"/>
		<path fill="#E0B36F" d="M196.1616058,149.7736206l-0.7137451-0.0958252
			c-1.1682739-0.159729-1.2340088-0.4782715-1.2340088-2.7755737v-5.4872437c0-2.1375732-1.1034546-3.9557495-3.796875-3.9557495
			c-1.6557007,0-3.1808472,0.7977295-4.5444336,1.6264648c-0.2272949,0-0.3568726-0.1588135-0.3568726-0.3504639
			c0-0.2874756,0-0.7657471,0.0647583-1.4995728c-0.0647583-0.159729-0.2272339-0.2227173-0.3568726-0.2227173
			c-0.6498413,0.4782715-2.4998779,1.3079224-3.246521,1.562561c-0.1615601,0.0958252-0.1615601,0.4472656-0.0319214,0.5740967
			l0.2920532,0.1916504c0.8762207,0.5741577,0.8762207,0.7338257,0.8762207,1.9779053v5.5830688
			c0,2.2973022-0.0319214,2.6158447-1.2330933,2.7755737l-0.6818237,0.0958252
			c-0.2272339,0.159729-0.1624146,0.7019043,0.0648193,0.7977295c0.9090576-0.0639038,1.8829346-0.0958252,3.0512085-0.0958252
			c1.1363525,0,2.0773926,0.0319214,2.9535522,0.0958252c0.2272949-0.0958252,0.2921143-0.6380005,0.0648193-0.7977295
			l-0.5841064-0.0958252c-1.168335-0.1916504-1.2330933-0.4782715-1.2330933-2.7755737v-4.8812256
			c0-0.9245605,0.0647583-1.3717651,0.4864502-1.9139404c0.4545288-0.6060791,1.526062-1.116272,2.7591553-1.116272
			c2.2069702,0,3.0512085,1.3399048,3.0512085,3.15802v4.753418c0,2.2973022-0.0328369,2.5839233-1.2330933,2.7755737
			l-0.6169434,0.0958252c-0.2272949,0.159729-0.1624756,0.7019043,0.0647583,0.7977295
			c0.8762207-0.0639038,1.8500977-0.0958252,3.0183716-0.0958252c1.1363525,0,2.0773315,0.0319214,3.0512085,0.0958252
			C196.3240814,150.4755249,196.3888397,149.9333496,196.1616058,149.7736206z"/>
		<path fill="#E0B36F" d="M210.3434296,149.5180664c0-0.2235718-0.0976562-0.4143677-0.2272949-0.4143677
			c-0.0976562,0-0.2601318,0.1278076-0.4225464,0.2227173c-0.194458,0.0958252-0.4865112,0.1916504-0.8114624,0.1916504
			c-1.2659302,0-1.5579834-1.3079224-1.4922485-2.7755737l0.194397-5.5511475
			c0.0976562-2.3922119-1.0386963-3.7321167-3.3761597-3.7321167c-2.3693848,0-6.0366821,2.2653809-6.0366821,3.9238281
			c0,0.2874756,0.1624146,0.4462891,0.4545288,0.4462891c0.4864502,0,1.3626709-0.2227173,1.8500366-0.6060181
			c0.2592163-0.1907959,0.2921143-0.5740967,0.3240356-1.0843506c0.0657349-0.9893799,1.1691895-1.4356689,2.0773315-1.4356689
			c2.0125732,0,2.4022827,1.5953979,2.3694458,2.7755737l-0.0319824,1.4676514c0,0.4782715-0.0647583,0.7657471-0.5521851,0.9245605
			l-3.8626099,1.3718262c-2.0773315,0.7338257-2.6934204,1.4676514-2.6934204,2.7116699
			c0,0.8935547,0.3887939,1.6912842,1.0057983,2.2334595c0.5521851,0.4782104,1.3307495,0.7338257,2.2717896,0.7338257
			c0.9090576,0,1.6237183-0.4144287,2.3374634-0.7977295c0.6489258-0.3505249,1.0386353-0.6380005,1.2659302-0.6380005
			c0.194397,0,0.3897095,0.2555542,0.5193481,0.4472046c0.5521851,0.7019043,1.3307495,0.9885254,2.1092529,0.9885254
			C209.207077,150.921875,210.3434296,149.6777954,210.3434296,149.5180664z M205.0524139,147.1897583
			c-0.0319824,0.6699219-0.0319824,1.1162109-0.4216919,1.4986572c-0.3249512,0.319458-1.3307495,0.7977295-1.9805908,0.7977295
			c-1.6547852,0-2.0444946-1.3718262-2.0444946-1.9140015c0-1.2440186,0.940979-1.72229,2.855896-2.3612061
			c0.585022-0.1907349,1.1363525-0.3184814,1.331665-0.3184814c0.194397,0,0.3239746,0.0638428,0.3239746,0.4143677
			L205.0524139,147.1897583z"/>
		<path fill="#E0B36F" d="M220.7264862,149.6777954l-0.6160889,0.0958252
			c-0.2272339,0.159729-0.1624756,0.7019043,0.0648193,0.7977295c0.8762207-0.0639038,1.8500977-0.0958252,3.0183716-0.0958252
			c1.1363525,0,2.0773315,0.0319214,3.0512085,0.0958252c0.2272339-0.0958252,0.2920532-0.6380005,0.0648193-0.7977295
			l-0.7137451-0.0958252c-1.1682739-0.159729-1.2330933-0.4782715-1.2330933-2.7755737v-5.4872437
			c0-2.1375732-1.1043701-3.9557495-3.7978516-3.9557495c-1.6556396,0-3.1807861,0.7977295-4.5443726,1.6264648
			c-0.2272949,0-0.3568726-0.1588135-0.3568726-0.3504639c0-0.2874756,0-0.7657471,0.0647583-1.4995728
			c-0.0647583-0.159729-0.2272339-0.2227173-0.3568726-0.2227173c-0.6498413,0.4782715-2.499939,1.3079224-3.246521,1.562561
			c-0.1615601,0.0958252-0.1615601,0.4472656-0.0319214,0.5740967l0.2920532,0.1916504
			c0.8762207,0.5741577,0.8762207,0.7338257,0.8762207,1.9779053v5.5830688c0,2.2973022-0.0319824,2.6158447-1.2330933,2.7755737
			l-0.6818237,0.0958252c-0.2272339,0.159729-0.1624756,0.7019043,0.0648193,0.7977295
			c0.9090576-0.0639038,1.8829346-0.0958252,3.0512085-0.0958252c1.1363525,0,2.0773315,0.0319214,2.9535522,0.0958252
			c0.2272949-0.0958252,0.2920532-0.6380005,0.0648193-0.7977295l-0.5841675-0.0958252
			c-1.1682739-0.1916504-1.2330322-0.4782715-1.2330322-2.7755737v-4.8812256c0-0.9245605,0.0647583-1.3717651,0.4864502-1.9139404
			c0.4545288-0.6060791,1.526062-1.116272,2.7591553-1.116272c2.2069702,0,3.0512085,1.3399048,3.0512085,3.15802v4.753418
			C221.960495,149.1995239,221.9276581,149.486145,220.7264862,149.6777954z"/>
		<path fill="#E0B36F" d="M239.4527435,147.2216797c-0.746582,1.0842896-1.720459,1.9140015-3.6033936,1.9140015
			c-3.4729004,0-5.2253418-2.9672852-5.2253418-5.4553223c0-3.3816528,2.2069702-5.1367798,4.4786987-5.1367798
			c1.3307495,0,2.5319214,0.8296509,3.246582,1.6912231c0.1295776,0.159729,0.2920532,0.2227173,0.4545288,0.2227173
			c0.3887939,0,0.7137451-0.6060181,0.7137451-1.1801147c0-0.5421753-0.2272949-1.0523682-0.4874268-1.276001
			c-0.8762207-0.3824463-2.1421509-0.5421753-2.8887329-0.5421753c-5.3877563,0-7.8548584,3.6682129-7.8548584,7.1137695
			c0,2.0736694,0.746582,3.637146,1.8829346,4.7214966c1.1363525,1.0852051,2.7263184,1.6273804,4.4467773,1.6273804
			c1.8829346,0,4.3171387-0.8935547,5.4205933-3.2538452C240.0040131,147.3804932,239.7119598,147.1577759,239.4527435,147.2216797z
			"/>
		<path fill="#E0B36F" d="M244.2536469,133.8859863c0.9090576,0,1.720459-0.5102539,1.720459-1.6588745
			c0-0.8935547-0.6489258-1.6593628-1.6228027-1.6593628s-1.7533569,0.6704102-1.7533569,1.7227783
			C242.5979462,133.1521606,243.2478485,133.8859863,244.2536469,133.8859863z"/>
		<path fill="#E0B36F" d="M246.9151459,149.6777954c-1.1682739-0.159729-1.2330933-0.4782715-1.2330933-2.7755737v-5.7427979
			c0-1.3079224,0.0648193-2.838562,0.1295776-3.9557495c-0.0328369-0.1277466-0.1624756-0.1907349-0.3248901-0.1907349
			c-0.7466431,0.4782715-2.5966797,1.3079224-3.3433228,1.562561c-0.1615601,0.0958252-0.1615601,0.4472656-0.0319214,0.5740967
			l0.2920532,0.1916504c0.8762207,0.5741577,0.8762207,0.7338257,0.8762207,1.9779053v5.5830688
			c0,2.2973022-0.0319214,2.6158447-1.2330933,2.7755737l-0.6817627,0.0958252
			c-0.2272949,0.159729-0.1624756,0.7019043,0.0647583,0.7977295c0.9090576-0.0639038,1.8829346-0.0958252,3.0512085-0.0958252
			c1.1363525,0,2.0773926,0.0319214,3.0512695,0.0958252c0.2272339-0.0958252,0.2920532-0.6380005,0.0647583-0.7977295
			L246.9151459,149.6777954z"/>
		<path fill="#E0B36F" d="M261.8124695,149.5180664c0-0.2235718-0.0976562-0.4143677-0.2272339-0.4143677
			c-0.0976562,0-0.2601318,0.1278076-0.4216919,0.2227173c-0.1953125,0.0958252-0.4873657,0.1916504-0.8123169,0.1916504
			c-1.2650146,0-1.5579834-1.3079224-1.4923096-2.7755737l0.194458-5.5511475
			c0.0976562-2.3922119-1.0386963-3.7321167-3.3761444-3.7321167c-2.3694458,0-6.0367432,2.2653809-6.0367432,3.9238281
			c0,0.2874756,0.1624756,0.4462891,0.4545288,0.4462891c0.4865112,0,1.3627319-0.2227173,1.8500977-0.6060181
			c0.2592163-0.1907959,0.2920532-0.5740967,0.3240356-1.0843506c0.0647583-0.9893799,1.1691895-1.4356689,2.0773315-1.4356689
			c2.0124969,0,2.4022675,1.5953979,2.3693695,2.7755737l-0.0319214,1.4676514c0,0.4782715-0.0648193,0.7657471-0.5521851,0.9245605
			l-3.8625946,1.3718262c-2.0773926,0.7338257-2.6934814,1.4676514-2.6934814,2.7116699
			c0,0.8935547,0.388855,1.6912842,1.0058594,2.2334595c0.5521851,0.4782104,1.3307495,0.7338257,2.272644,0.7338257
			c0.9081421,0,1.6228027-0.4144287,2.3365479-0.7977295c0.6489868-0.3505249,1.038681-0.6380005,1.2659149-0.6380005
			c0.194458,0,0.3897705,0.2555542,0.5193481,0.4472046c0.5513306,0.7019043,1.3307495,0.9885254,2.1102295,0.9885254
			C260.676178,150.921875,261.8124695,149.6777954,261.8124695,149.5180664z M256.5214539,147.1897583
			c-0.0328369,0.6699219-0.0328369,1.1162109-0.4216919,1.4986572c-0.3248749,0.319458-1.3306732,0.7977295-1.9805756,0.7977295
			c-1.6547241,0-2.0444946-1.3718262-2.0444946-1.9140015c0-1.2440186,0.94104-1.72229,2.8568115-2.3612061
			c0.5841675-0.1907349,1.1354218-0.3184814,1.3307343-0.3184814c0.194397,0,0.3240356,0.0638428,0.3240356,0.4143677
			L256.5214539,147.1897583z"/>
		<path fill="#E0B36F" d="M268.820343,149.7736206l-0.7785645-0.0958252
			c-1.1691895-0.159729-1.2339478-0.4782715-1.2339478-2.7755737v-15.0899658c0-1.4037476,0.0647583-2.9987183,0.0976562-3.9561768
			c-0.0648193-0.1273193-0.1953735-0.1912231-0.3249512-0.1912231c-1.1682739,0.6060791-2.6934204,1.0847778-3.5057373,1.3399048
			c-0.1615601,0.0958252-0.1615601,0.5426025,0,0.6380005l0.3248901,0.1916504
			c0.973877,0.5740967,1.0058594,0.7653198,1.0058594,2.6477661v14.4200439c0,2.2973022-0.0319824,2.6158447-1.2330933,2.7755737
			l-0.7466431,0.0958252c-0.2272339,0.159729-0.1624146,0.7019043,0.0648193,0.7977295
			c0.973877-0.0639038,1.9477539-0.0958252,3.1160278-0.0958252c1.1363525,0,2.0773315,0.0319214,3.1488647,0.0958252
			C268.9828186,150.4755249,269.0476379,149.9333496,268.820343,149.7736206z"/>
		<path fill="#E0B36F" d="M283.7159119,148.8481445c2.3693848,1.5634766,5.1605225,2.1375732,8.0820923,2.1375732
			c2.0773926,0,4.4139404-0.4782715,5.1286011-0.7338257c0.3568726-0.1277466,0.7456665-0.2555542,1.135376-0.3185425
			c0.4874268-0.6069336,1.3307495-2.7116699,1.5580444-4.3709717c-0.1296387-0.2236328-0.6160889-0.2875366-0.8433838-0.1278076
			c-0.746582,1.882019-2.5966797,4.5617676-6.7841797,4.5617676c-5.322998,0-9.6401367-3.7001343-9.6401367-10.3994751
			c0-6.6044312,4.2194824-9.6990356,9.1855469-9.6990356c4.7069092,0,6.1672363,2.4885254,6.6546631,4.6580811
			c0.2263794,0.1916504,0.7137451,0.159729,0.8762207-0.0639038c-0.2601318-1.9459229-0.4226074-3.9557495-0.4545288-4.6895752
			c-0.2921143,0.0319824-0.5193481-0.0319214-0.9091187-0.1277466c-1.5251465-0.414856-3.9921875-0.7657471-5.7446289-0.7657471
			c-3.3761597,0-6.3944702,0.8934937-8.763916,2.7116699c-2.467041,1.8829346-4.0899048,4.913147-4.0899048,8.4544678
			C279.1066589,144.1905518,281.1192322,147.0939331,283.7159119,148.8481445z"/>
		<path fill="#E0B36F" d="M307.0166931,150.1241455c0.6489258-0.3505249,1.0386963-0.6380005,1.2659302-0.6380005
			c0.194397,0,0.3897095,0.2555542,0.5193481,0.4472046c0.5512695,0.7019043,1.3307495,0.9885254,2.1102295,0.9885254
			c1.5899048,0,2.7262573-1.2440796,2.7262573-1.4038086c0-0.2235718-0.0976562-0.4143677-0.2272339-0.4143677
			c-0.0977173,0-0.2601318,0.1278076-0.4216919,0.2227173c-0.1953125,0.0958252-0.4874268,0.1916504-0.8123169,0.1916504
			c-1.2650146,0-1.5580444-1.3079224-1.4923096-2.7755737l0.194397-5.5511475
			c0.0976562-2.3922119-1.0386353-3.7321167-3.3761597-3.7321167c-2.3693848,0-6.0366821,2.2653809-6.0366821,3.9238281
			c0,0.2874756,0.1624756,0.4462891,0.4545288,0.4462891c0.4864502,0,1.3626709-0.2227173,1.8500977-0.6060181
			c0.2592163-0.1907959,0.2920532-0.5740967,0.3239746-1.0843506c0.0648193-0.9893799,1.1691895-1.4356689,2.0773926-1.4356689
			c2.0125122,0,2.4022217,1.5953979,2.3693848,2.7755737l-0.0319214,1.4676514c0,0.4782715-0.0648193,0.7657471-0.5522461,0.9245605
			l-3.8626099,1.3718262c-2.0773315,0.7338257-2.6934204,1.4676514-2.6934204,2.7116699
			c0,0.8935547,0.3887939,1.6912842,1.0057983,2.2334595c0.5522461,0.4782104,1.3307495,0.7338257,2.2727051,0.7338257
			C305.5882874,150.921875,306.302948,150.5074463,307.0166931,150.1241455z M303.9006653,147.5721436
			c0-1.2440186,0.94104-1.72229,2.8568115-2.3612061c0.5841675-0.1907349,1.135437-0.3184814,1.3307495-0.3184814
			c0.194397,0,0.3240356,0.0638428,0.3240356,0.4143677l-0.0648193,1.8829346
			c-0.0328369,0.6699219-0.0328369,1.1162109-0.4216919,1.4986572c-0.3249512,0.319458-1.3307495,0.7977295-1.9805908,0.7977295
			C304.2903748,149.486145,303.9006653,148.1143188,303.9006653,147.5721436z"/>
		<path fill="#E0B36F" d="M323.3077698,137.4592285c-2.0773315,0-4.1218262,1.3079224-4.5443726,1.4996338
			c-0.2272949,0-0.2921143-0.1917114-0.2921143-0.4152832c0-0.4143677,0.0648193-0.8926392,0.1305542-1.4676514
			c-0.0657349-0.1588135-0.1953125-0.2227173-0.3897705-0.2227173c-0.8442383,0.6060181-2.3693848,1.3718262-3.2136841,1.72229
			c-0.1624146,0.0958252-0.1624146,0.4472656-0.0319214,0.5740967l0.2920532,0.1916504
			c0.8762207,0.5741577,0.8762207,0.7338257,0.8762207,1.9779053v13.7181396c0,2.2973022-0.0328369,2.6158447-1.2340088,2.7755737
			l-0.6808472,0.0958252c-0.2272949,0.159729-0.1624756,0.7019043,0.0647583,0.7977295
			c0.9082031-0.0639038,1.8820801-0.0958252,3.0512695-0.0958252c1.135376,0,2.0773315,0.0319214,3.6353149,0.0958252
			c0.2272949-0.0958252,0.2921143-0.6380005,0.0648193-0.7977295l-1.2659302-0.159729
			c-1.1682739-0.159729-1.2340088-0.4462891-1.2340088-2.7116699v-3.3496704c0-0.6699219,0.1624756-0.8296509,0.4545288-0.8935547
			c0.2920532,0.0639038,1.2011719,0.1278076,1.7852783,0.1278076c4.6092529,0,7.9196777-3.1900024,7.9196777-7.6248779
			C328.6955872,140.0750732,326.5862732,137.4592285,323.3077698,137.4592285z M321.8474426,149.8695068
			c-0.6818237,0-1.6876221-0.2236328-2.3374634-0.7019043c-0.6489258-0.5111084-0.973877-0.8935547-0.973877-1.914856v-5.4863892
			c0-1.0532837,0.0976562-1.5315552,0.3897095-1.8829346c0.3568726-0.3824463,1.3636475-0.8926392,2.7591553-0.8926392
			c2.9216309,0,4.381958,2.5839233,4.381958,5.1358643C326.066925,147.444397,324.5089417,149.8695068,321.8474426,149.8695068z"/>
		<path fill="#E0B36F" d="M336.6453552,149.6777954c-1.1682739-0.159729-1.2330933-0.4782715-1.2330933-2.7755737v-5.7427979
			c0-1.3079224,0.0648193-2.838562,0.1296387-3.9557495c-0.0328979-0.1277466-0.1624756-0.1907349-0.3249512-0.1907349
			c-0.746582,0.4782715-2.5966797,1.3079224-3.3432617,1.562561c-0.1615601,0.0958252-0.1615601,0.4472656-0.0319824,0.5740967
			l0.2920532,0.1916504c0.8762207,0.5741577,0.8762207,0.7338257,0.8762207,1.9779053v5.5830688
			c0,2.2973022-0.0319214,2.6158447-1.2330933,2.7755737l-0.6817627,0.0958252
			c-0.2272949,0.159729-0.1624756,0.7019043,0.0648193,0.7977295c0.9090576-0.0639038,1.8829346-0.0958252,3.0512085-0.0958252
			c1.1362915,0,2.0773315,0.0319214,3.0512085,0.0958252c0.2272339-0.0958252,0.2920532-0.6380005,0.0648193-0.7977295
			L336.6453552,149.6777954z"/>
		<path fill="#E0B36F" d="M333.9838562,133.8859863c0.9090576,0,1.720459-0.5102539,1.720459-1.6588745
			c0-0.8935547-0.6489258-1.6593628-1.6228027-1.6593628s-1.7532959,0.6704102-1.7532959,1.7227783
			C332.3282166,133.1521606,332.9780579,133.8859863,333.9838562,133.8859863z"/>
		<path fill="#E0B36F" d="M344.0118713,139.2454224h3.6682129c0.2921143-0.1907349,0.3568726-1.0523682-0.0328369-1.3398438
			h-3.602478c-0.5521851,0-0.5841675-0.0319824-0.5841675-0.6060791v-1.4356689
			c-0.1304932-0.2227173-0.5193481-0.2227173-0.6817627-0.159729c-0.3249512,0.638916-0.94104,1.4995728-1.3636475,1.8829346
			c-0.3239746,0.2865601-1.135376,0.7019043-2.0773315,0.9884644c-0.1295776,0.1916504-0.0967407,0.5421753,0.0976562,0.6699219
			h0.9090576c0.6489868,0,0.6818237,0.0639038,0.6818237,0.9255371v7.3053589c0,1.9140015,0.5841675,3.4455566,3.3752441,3.4455566
			c1.6556396,0,2.8239136-0.7977295,3.4080811-1.4676514c0.0648193-0.1907959-0.0648193-0.5421753-0.3249512-0.5421753
			c-0.0967407,0-0.5193481,0.3513794-0.8114014,0.4462891c-0.2592163,0.0958862-0.5512695,0.159729-0.8762207,0.159729
			c-2.1421509,0-2.3693848-1.6903076-2.3693848-3.5413208v-5.9655151
			C343.4277649,139.3412476,343.4606018,139.2454224,344.0118713,139.2454224z"/>
		<path fill="#E0B36F" d="M361.2778015,149.1036987c-0.0976562,0-0.2601318,0.1278076-0.4216919,0.2227173
			c-0.1953125,0.0958252-0.4873657,0.1916504-0.8123169,0.1916504c-1.2650146,0-1.5579834-1.3079224-1.4923096-2.7755737
			l0.194397-5.5511475c0.0977173-2.3922119-1.0386353-3.7321167-3.3760986-3.7321167
			c-2.3694458,0-6.0367432,2.2653809-6.0367432,3.9238281c0,0.2874756,0.1624756,0.4462891,0.4545288,0.4462891
			c0.4865112,0,1.3626709-0.2227173,1.8500977-0.6060181c0.2592163-0.1907959,0.2920532-0.5740967,0.3240356-1.0843506
			c0.0647583-0.9893799,1.1691895-1.4356689,2.0773315-1.4356689c2.0125122,0,2.4022827,1.5953979,2.3693848,2.7755737
			l-0.0319214,1.4676514c0,0.4782715-0.0648193,0.7657471-0.5521851,0.9245605l-3.8626099,1.3718262
			c-2.0773926,0.7338257-2.6934814,1.4676514-2.6934814,2.7116699c0,0.8935547,0.388855,1.6912842,1.0058594,2.2334595
			c0.5521851,0.4782104,1.3307495,0.7338257,2.272644,0.7338257c0.9081421,0,1.6228027-0.4144287,2.3365479-0.7977295
			c0.6489868-0.3505249,1.0386963-0.6380005,1.2659302-0.6380005c0.194458,0,0.3897705,0.2555542,0.5193481,0.4472046
			c0.5512695,0.7019043,1.3307495,0.9885254,2.1102295,0.9885254c1.5899658,0,2.7262573-1.2440796,2.7262573-1.4038086
			C361.5050354,149.2944946,361.4073792,149.1036987,361.2778015,149.1036987z M356.2140198,147.1897583
			c-0.0328369,0.6699219-0.0328369,1.1162109-0.4216919,1.4986572c-0.3248901,0.319458-1.3307495,0.7977295-1.9805908,0.7977295
			c-1.6547241,0-2.0444946-1.3718262-2.0444946-1.9140015c0-1.2440186,0.94104-1.72229,2.8568115-2.3612061
			c0.5841675-0.1907349,1.135437-0.3184814,1.3307495-0.3184814c0.194397,0,0.3240356,0.0638428,0.3240356,0.4143677
			L356.2140198,147.1897583z"/>
		<path fill="#E0B36F" d="M368.5129089,149.7736206l-0.7785645-0.0958252
			c-1.1691895-0.159729-1.2340088-0.4782715-1.2340088-2.7755737v-15.0899658c0-1.4037476,0.0648193-2.9987183,0.0977173-3.9561768
			c-0.0648193-0.1273193-0.1953735-0.1912231-0.3249512-0.1912231c-1.1682739,0.6060791-2.6934204,1.0847778-3.5057373,1.3399048
			c-0.1615601,0.0958252-0.1615601,0.5426025,0,0.6380005l0.3248901,0.1916504
			c0.973877,0.5740967,1.0058594,0.7653198,1.0058594,2.6477661v14.4200439c0,2.2973022-0.0319824,2.6158447-1.2330933,2.7755737
			l-0.7466431,0.0958252c-0.2272339,0.159729-0.1624146,0.7019043,0.0648193,0.7977295
			c0.973877-0.0639038,1.9477539-0.0958252,3.1160278-0.0958252c1.1363525,0,2.0773315,0.0319214,3.1488647,0.0958252
			C368.6753845,150.4755249,368.7401428,149.9333496,368.5129089,149.7736206z"/>
		<polygon fill="#E0B36F" points="98.371315,172.1723022 96.9958267,172.1723022 96.9958267,180.3457031 102.6556168,180.3457031 
			102.6556168,179.1235352 98.371315,179.1235352 		"/>
		<path fill="#E0B36F" d="M110.6656265,172.819397c-0.2857056-0.2336426-0.6188354-0.4134521-0.9994507-0.5402832
			c-0.3814697-0.1259766-0.7849121-0.1889648-1.2111206-0.1889648c-0.4335938,0-0.8388062,0.0611572-1.2157593,0.1834717
			c-0.3778687,0.1223145-0.7073364,0.300293-0.9884644,0.5339355c-0.2802124,0.2327271-0.5038452,0.515686-0.6681519,0.8479004
			c-0.1642456,0.3322144-0.2463989,0.7119141-0.2463989,1.1390991v2.9060669c0,0.4271851,0.0803223,0.8104858,0.2409668,1.1500244
			c0.1606445,0.3404541,0.3787842,0.6270752,0.65625,0.8607178c0.2765503,0.2327271,0.6060181,0.4107056,0.9875488,0.5339355
			c0.3815308,0.1223145,0.7931519,0.1834717,1.2340088,0.1834717c0.4335327,0,0.8414917-0.0611572,1.2230225-0.1834717
			c0.3815308-0.12323,0.7146606-0.3012085,0.9993896-0.5339355c0.28479-0.2336426,0.5075073-0.5202637,0.6681519-0.8607178
			c0.1606445-0.3395386,0.2409668-0.7228394,0.2409668-1.1500244v-2.8823242c0-0.4271851-0.0821533-0.8087158-0.24646-1.1445923
			C111.1749039,173.3369141,110.9504166,173.0521851,110.6656265,172.819397z M110.2110977,177.4989014
			c0,0.300293-0.0484009,0.5576782-0.1451416,0.7713013c-0.0967407,0.213562-0.2263184,0.3869629-0.3878784,0.5211182
			c-0.1615601,0.1350708-0.3486938,0.2336426-0.5631714,0.2966309c-0.213562,0.0639038-0.4335327,0.0949097-0.6598511,0.0949097
			c-0.2254639,0-0.4436035-0.0310059-0.6535645-0.0949097c-0.2098999-0.0629883-0.3961182-0.1615601-0.5567017-0.2966309
			c-0.1615601-0.1341553-0.2911987-0.3075562-0.3879395-0.5211182c-0.0967407-0.213623-0.1451416-0.4710083-0.1451416-0.7713013
			v-2.4789429c0-0.2929688,0.0484009-0.5457764,0.1451416-0.7593384c0.0967407-0.213623,0.2236328-0.3897705,0.3815308-0.5275879
			c0.1569824-0.1387329,0.3413696-0.2391357,0.5512695-0.3029785c0.2090454-0.0629883,0.4317017-0.0949707,0.6654053-0.0949707
			c0.2263184,0,0.4462891,0.0319824,0.6598511,0.0949707c0.2144775,0.0638428,0.4016113,0.1642456,0.5631714,0.3029785
			c0.1615601,0.1378174,0.2911377,0.3139648,0.3878784,0.5275879c0.0967407,0.213562,0.1451416,0.4663696,0.1451416,0.7593384
			V177.4989014z"/>
		<polygon fill="#E0B36F" points="119.9470596,177.8192749 119.8740616,177.8192749 118.5350723,175.7903442 
			116.0607071,172.1723022 114.7819595,172.1723022 114.7819595,180.3457031 116.1574478,180.3457031 116.1574478,174.7352295 
			116.2423477,174.7352295 117.5210342,176.668335 120.031044,180.3457031 121.3225479,180.3457031 121.3225479,172.1723022 
			119.9470596,172.1723022 		"/>
		<path fill="#E0B36F" d="M129.7825165,172.8550415c-0.265625-0.2254639-0.5731812-0.3952026-0.923645-0.5102539
			c-0.3496094-0.1149902-0.7174072-0.1724854-1.1035233-0.1724854h-3.1378784v8.1734009h3.1251221
			c0.386055,0,0.7548294-0.0593262,1.1043777-0.1779785c0.3496094-0.1186523,0.6599121-0.2920532,0.9291382-0.5220947
			c0.2692871-0.2290649,0.4828491-0.5056152,0.6398315-0.8305664c0.1569824-0.3240356,0.2354736-0.6954956,0.2354736-1.1144409
			v-2.8823242c0-0.4271851-0.0784912-0.8050537-0.2354736-1.1326904
			C130.2589569,173.3569946,130.0481415,173.0804443,129.7825165,172.8550415z M129.2513275,177.4752197
			c0,0.3084717-0.0547485,0.569519-0.1633911,0.7830811c-0.1085815,0.213562-0.2473145,0.3851929-0.4161987,0.515686
			c-0.1688232,0.1305542-0.3577881,0.2254639-0.5667725,0.28479c-0.209053,0.0593262-0.4143753,0.088501-0.615181,0.088501
			h-1.4968872v-5.7528687h1.4968872c0.2172241,0,0.4298706,0.0301514,0.6388626,0.0894775
			c0.2090454,0.0593262,0.3988647,0.1542358,0.567749,0.2838745c0.1688232,0.1304932,0.3030396,0.3029785,0.4042969,0.5166016
			c0.1004028,0.213562,0.1506348,0.4746094,0.1506348,0.7830811V177.4752197z"/>
		<path fill="#E0B36F" d="M139.0575409,172.819397c-0.2856445-0.2336426-0.6187744-0.4134521-0.9993896-0.5402832
			c-0.3815308-0.1259766-0.7849731-0.1889648-1.2111816-0.1889648c-0.4335327,0-0.8388062,0.0611572-1.2157593,0.1834717
			c-0.3778687,0.1223145-0.7073364,0.300293-0.9884644,0.5339355c-0.2802124,0.2327271-0.5038452,0.515686-0.6680908,0.8479004
			c-0.1643066,0.3322144-0.24646,0.7119141-0.24646,1.1390991v2.9060669c0,0.4271851,0.0803223,0.8104858,0.2409668,1.1500244
			c0.1606445,0.3404541,0.3787842,0.6270752,0.65625,0.8607178c0.2765503,0.2327271,0.6060181,0.4107056,0.9875488,0.5339355
			c0.3815308,0.1223145,0.7931519,0.1834717,1.2340088,0.1834717c0.4335327,0,0.8414917-0.0611572,1.2230225-0.1834717
			c0.3815308-0.12323,0.7146606-0.3012085,0.9994507-0.5339355c0.284729-0.2336426,0.5074463-0.5202637,0.6680908-0.8607178
			c0.1606445-0.3395386,0.2409668-0.7228394,0.2409668-1.1500244v-2.8823242c0-0.4271851-0.0821533-0.8087158-0.24646-1.1445923
			C139.5668793,173.3369141,139.3423309,173.0521851,139.0575409,172.819397z M138.6030121,177.4989014
			c0,0.300293-0.0483398,0.5576782-0.1450806,0.7713013c-0.0968018,0.213562-0.2263794,0.3869629-0.3879395,0.5211182
			c-0.1615601,0.1350708-0.3486328,0.2336426-0.5631104,0.2966309c-0.213623,0.0639038-0.4335938,0.0949097-0.6599121,0.0949097
			c-0.2254639,0-0.4436035-0.0310059-0.6535034-0.0949097c-0.2099609-0.0629883-0.3961182-0.1615601-0.5567627-0.2966309
			c-0.1615601-0.1341553-0.2911377-0.3075562-0.3879395-0.5211182c-0.0967407-0.213623-0.1450806-0.4710083-0.1450806-0.7713013
			v-2.4789429c0-0.2929688,0.0483398-0.5457764,0.1450806-0.7593384c0.0968018-0.213623,0.2236328-0.3897705,0.3815308-0.5275879
			c0.1569824-0.1387329,0.3413696-0.2391357,0.5512695-0.3029785c0.2090454-0.0629883,0.4317627-0.0949707,0.6654053-0.0949707
			c0.2263184,0,0.4462891,0.0319824,0.6599121,0.0949707c0.2144775,0.0638428,0.4015503,0.1642456,0.5631104,0.3029785
			c0.1615601,0.1378174,0.2911377,0.3139648,0.3879395,0.5275879c0.0967407,0.213562,0.1450806,0.4663696,0.1450806,0.7593384
			V177.4989014z"/>
		<polygon fill="#E0B36F" points="148.338974,177.8192749 148.265976,177.8192749 146.9270477,175.7903442 144.4526215,172.1723022 
			143.1739349,172.1723022 143.1739349,180.3457031 144.5493622,180.3457031 144.5493622,174.7352295 144.6342621,174.7352295 
			145.9130096,176.668335 148.4229584,180.3457031 149.7144623,180.3457031 149.7144623,172.1723022 148.338974,172.1723022 		"/>
		<polygon fill="#E0B36F" points="262.6368713,175.2572632 261.6237488,177.380249 261.5507507,177.380249 260.5257263,175.2810059 
			258.9449158,172.1723022 257.6534119,172.1723022 257.6534119,180.3457031 259.0289001,180.3457031 259.0289001,175.3640747 
			259.07724,175.3640747 259.9342957,177.0361938 261.0688171,179.1710205 262.0819397,179.1710205 263.2529602,176.9056396 
			264.025116,175.3640747 264.0734558,175.3640747 264.0734558,180.3457031 265.4489441,180.3457031 265.4489441,172.1723022 
			264.1820984,172.1723022 		"/>
		<path fill="#E0B36F" d="M273.9764709,172.819397c-0.2857056-0.2336426-0.6188354-0.4134521-0.9994507-0.5402832
			c-0.3814697-0.1259766-0.7849121-0.1889648-1.2111816-0.1889648c-0.4335327,0-0.8387451,0.0611572-1.2156982,0.1834717
			c-0.3778687,0.1223145-0.7073975,0.300293-0.9884644,0.5339355c-0.2802124,0.2327271-0.5038452,0.515686-0.6681519,0.8479004
			c-0.1642456,0.3322144-0.2463989,0.7119141-0.2463989,1.1390991v2.9060669c0,0.4271851,0.0803223,0.8104858,0.2409668,1.1500244
			c0.1605835,0.3404541,0.3787231,0.6270752,0.656189,0.8607178c0.2765503,0.2327271,0.6060791,0.4107056,0.9876099,0.5339355
			c0.3814697,0.1223145,0.7931519,0.1834717,1.2339478,0.1834717c0.4335938,0,0.8415527-0.0611572,1.2230835-0.1834717
			c0.3815308-0.12323,0.7146606-0.3012085,0.9993896-0.5339355c0.28479-0.2336426,0.5075073-0.5202637,0.6681519-0.8607178
			c0.1606445-0.3395386,0.2409668-0.7228394,0.2409668-1.1500244v-2.8823242c0-0.4271851-0.0821533-0.8087158-0.24646-1.1445923
			C274.4857483,173.3369141,274.261261,173.0521851,273.9764709,172.819397z M273.5219421,177.4989014
			c0,0.300293-0.0484009,0.5576782-0.1451416,0.7713013c-0.0967407,0.213562-0.2263184,0.3869629-0.3878784,0.5211182
			c-0.1615601,0.1350708-0.3486938,0.2336426-0.5631714,0.2966309c-0.213562,0.0639038-0.4335327,0.0949097-0.6599121,0.0949097
			c-0.2254028,0-0.4435425-0.0310059-0.6535034-0.0949097c-0.2098999-0.0629883-0.3961182-0.1615601-0.5567627-0.2966309
			c-0.161499-0.1341553-0.2911377-0.3075562-0.3878784-0.5211182c-0.0967407-0.213623-0.1451416-0.4710083-0.1451416-0.7713013
			v-2.4789429c0-0.2929688,0.0484009-0.5457764,0.1451416-0.7593384c0.0967407-0.213623,0.2236328-0.3897705,0.3815308-0.5275879
			c0.1569824-0.1387329,0.3413696-0.2391357,0.5512695-0.3029785c0.2089844-0.0629883,0.4317017-0.0949707,0.6653442-0.0949707
			c0.2263794,0,0.4463501,0.0319824,0.6599121,0.0949707c0.2144775,0.0638428,0.4016113,0.1642456,0.5631714,0.3029785
			c0.1615601,0.1378174,0.2911377,0.3139648,0.3878784,0.5275879c0.0967407,0.213562,0.1451416,0.4663696,0.1451416,0.7593384
			V177.4989014z"/>
		<path fill="#E0B36F" d="M283.1702576,176.4018555c-0.2373047-0.1862183-0.5211182-0.338623-0.850647-0.4572754
			c-0.3294678-0.1186523-0.6918335-0.2208862-1.0861206-0.3085327c-0.2409668-0.0474243-0.4727783-0.1004028-0.6936646-0.159729
			c-0.2218018-0.0593262-0.4180298-0.1341553-0.5914307-0.2254028c-0.1724854-0.0903931-0.3121338-0.2035522-0.4161987-0.3377075
			c-0.1049805-0.1350708-0.1569824-0.3012085-0.1569824-0.4983521c0-0.1980591,0.0401611-0.3696289,0.1204834-0.5166016
			c0.0803223-0.1460571,0.1870728-0.2665405,0.3203125-0.3614502c0.1323853-0.0949097,0.28479-0.1660767,0.4581909-0.213562
			c0.1734619-0.0474854,0.355957-0.071167,0.5494995-0.071167c0.3532104,0,0.7137451,0.0437622,1.0797119,0.1304932
			c0.3660278,0.0876465,0.7338257,0.2418823,1.1044312,0.4627686l0.6151733-1.1098633
			c-0.442688-0.2738647-0.9072876-0.460022-1.3937378-0.5576782c-0.4865112-0.0985718-0.9793701-0.1469727-1.4786377-0.1469727
			c-0.4180298,0-0.7958984,0.0611572-1.1335449,0.1834717c-0.338623,0.1223145-0.6279907,0.2902222-0.8689575,0.5029297
			c-0.2418213,0.213562-0.427124,0.4654541-0.5558472,0.7575073c-0.1286621,0.2921143-0.1925659,0.6124268-0.1925659,0.9602051
			c0,0.3705444,0.0703125,0.6845093,0.2108154,0.940979c0.140564,0.2565308,0.3258667,0.4737549,0.5549316,0.6517334
			c0.2300415,0.177063,0.4956055,0.321228,0.796814,0.4317017c0.302124,0.1104126,0.6133423,0.2017212,0.9355469,0.2728882
			c0.2573853,0.0629883,0.5047607,0.1223145,0.7420654,0.177063c0.2373047,0.0556641,0.4481201,0.1305542,0.6334229,0.2254639
			c0.1852417,0.0949097,0.3312988,0.2126465,0.4399414,0.3550415c0.1085815,0.142395,0.1633301,0.3276367,0.1633301,0.5567627
			c0,0.3312988-0.1350708,0.6060181-0.4042969,0.8232422c-0.2692871,0.2172241-0.6781616,0.3249512-1.2249146,0.3249512
			c-0.40979,0-0.8186646-0.072998-1.2248535-0.2190552c-0.4061279-0.1460571-0.7904053-0.3495483-1.1518555-0.6105957
			l-0.7730713,0.9838867c0.4828491,0.3879395,0.9839478,0.6626587,1.5023804,0.8251343
			c0.5192871,0.161499,1.0723877,0.2427368,1.6593018,0.2427368c0.442688,0,0.852478-0.053833,1.2312622-0.159729
			c0.3778687-0.1067505,0.7018433-0.2610474,0.9711304-0.4627075c0.2692261-0.2017212,0.4810181-0.4509277,0.6334229-0.7475586
			c0.1533203-0.2966309,0.2299805-0.6343384,0.2299805-1.0140381c0-0.3796387-0.0665894-0.7000122-0.1998901-0.9610596
			C283.592865,176.81073,283.4075623,176.5870972,283.1702576,176.4018555z"/>
		<path fill="#E0B36F" d="M288.4293518,174.2487183c0.1004028-0.213562,0.230896-0.3878784,0.3924561-0.5220337
			c0.1606445-0.1342163,0.3432007-0.2327881,0.548584-0.2966309c0.2053223-0.0629883,0.4125366-0.0949707,0.621521-0.0949707
			c0.2975464,0,0.6033325,0.0474854,0.9172974,0.142395s0.586853,0.2409668,0.8205566,0.4390259l0.675415-1.0560303
			c-0.3212891-0.2610474-0.6936646-0.4545288-1.116272-0.5813599c-0.4216919-0.1259766-0.8625488-0.1889648-1.3206787-0.1889648
			c-0.3943481,0-0.7767334,0.0584106-1.1464233,0.177063c-0.3705444,0.1186523-0.6972656,0.2911987-0.9802246,0.5166016
			c-0.282959,0.2254639-0.5101929,0.5020142-0.6818237,0.8305664c-0.1715698,0.3276978-0.2573853,0.7055664-0.2573853,1.1326904
			v3.0247803c0,0.427124,0.0858154,0.8068237,0.2573853,1.1381226c0.1716309,0.3322144,0.3988647,0.6115112,0.6818237,0.8369751
			s0.6096802,0.3952026,0.9802246,0.5101929c0.3696899,0.1141357,0.7557373,0.1716309,1.1582642,0.1716309
			c0.4828491,0,0.9364624-0.071228,1.3635864-0.213623c0.4262695-0.142334,0.7803955-0.3276367,1.0615234-0.5576172
			l-0.6516724-1.0432739c-0.2729492,0.2126465-0.5631714,0.3614502-0.8689575,0.444519
			c-0.3057251,0.0830688-0.6069336,0.1240845-0.90448,0.1240845c-0.2017212,0-0.4025269-0.0310059-0.6033325-0.0949097
			c-0.2016602-0.0629883-0.3842163-0.1615601-0.5494385-0.2966309c-0.1652222-0.1341553-0.2975464-0.3075562-0.3979492-0.5211182
			c-0.1004028-0.213623-0.1505737-0.4710083-0.1505737-0.7713013v-2.4789429
			C288.2787781,174.718811,288.328949,174.4623413,288.4293518,174.2487183z"/>
		<path fill="#E0B36F" d="M300.4096985,172.819397c-0.2857056-0.2336426-0.6188354-0.4134521-0.9994507-0.5402832
			c-0.3814697-0.1259766-0.7849121-0.1889648-1.2111816-0.1889648c-0.4335327,0-0.8387451,0.0611572-1.2156982,0.1834717
			c-0.3778687,0.1223145-0.7073975,0.300293-0.9884644,0.5339355c-0.2802124,0.2327271-0.5038452,0.515686-0.6681519,0.8479004
			c-0.1642456,0.3322144-0.2463989,0.7119141-0.2463989,1.1390991v2.9060669c0,0.4271851,0.0803223,0.8104858,0.2409668,1.1500244
			c0.1606445,0.3404541,0.3787842,0.6270752,0.65625,0.8607178c0.2765503,0.2327271,0.6060181,0.4107056,0.9875488,0.5339355
			c0.3814697,0.1223145,0.7931519,0.1834717,1.2339478,0.1834717c0.4335938,0,0.8415527-0.0611572,1.2230835-0.1834717
			c0.3815308-0.12323,0.7146606-0.3012085,0.9993896-0.5339355c0.28479-0.2336426,0.5075073-0.5202637,0.6681519-0.8607178
			c0.1606445-0.3395386,0.2409668-0.7228394,0.2409668-1.1500244v-2.8823242c0-0.4271851-0.0821533-0.8087158-0.24646-1.1445923
			C300.9189758,173.3369141,300.6944885,173.0521851,300.4096985,172.819397z M299.9551697,177.4989014
			c0,0.300293-0.0484009,0.5576782-0.1451416,0.7713013c-0.0967407,0.213562-0.2263184,0.3869629-0.3878784,0.5211182
			c-0.1615601,0.1350708-0.3486938,0.2336426-0.5631714,0.2966309c-0.213562,0.0639038-0.4335327,0.0949097-0.6599121,0.0949097
			c-0.2254028,0-0.4435425-0.0310059-0.6535034-0.0949097c-0.2098999-0.0629883-0.3961182-0.1615601-0.5567017-0.2966309
			c-0.1615601-0.1341553-0.2911987-0.3075562-0.3879395-0.5211182c-0.0967407-0.213623-0.1451416-0.4710083-0.1451416-0.7713013
			v-2.4789429c0-0.2929688,0.0484009-0.5457764,0.1451416-0.7593384c0.0967407-0.213623,0.2236328-0.3897705,0.3815308-0.5275879
			c0.1569824-0.1387329,0.3413696-0.2391357,0.5512695-0.3029785c0.2090454-0.0629883,0.4317017-0.0949707,0.6653442-0.0949707
			c0.2263794,0,0.4463501,0.0319824,0.6599121,0.0949707c0.2144775,0.0638428,0.4016113,0.1642456,0.5631714,0.3029785
			c0.1615601,0.1378174,0.2911377,0.3139648,0.3878784,0.5275879c0.0967407,0.213562,0.1451416,0.4663696,0.1451416,0.7593384
			V177.4989014z"/>
		<polygon fill="#E0B36F" points="311.9875183,175.7666016 311.408844,178.2820435 311.3486023,178.2820435 
			310.7206726,175.7903442 309.7915344,172.1723022 308.4397888,172.1723022 307.5471497,175.6479492 306.8954773,178.2820435 
			306.8233948,178.2820435 306.2200623,175.6716919 305.3867493,172.1723022 303.9026794,172.1723022 306.0630798,180.3457031 
			307.5955505,180.3457031 308.464447,176.9768677 309.0796204,174.5335083 309.1517029,174.5335083 309.7550354,176.953125 
			310.6366882,180.3457031 312.1564026,180.3457031 314.3286438,172.1723022 312.844574,172.1723022 		"/>
		<path fill="#E0B36F" d="M181.582016,177.1192627h1.2677612v1.6364746
			c-0.2427979,0.1825562-0.479187,0.2993774-0.7091675,0.3504639c-0.2300415,0.0511475-0.4298706,0.0766602-0.5996704,0.0766602
			c-0.2181396,0-0.4317017-0.0310059-0.6425781-0.0949097c-0.2098999-0.0629883-0.3969727-0.1615601-0.5631104-0.2966309
			c-0.1652222-0.1341553-0.2966309-0.3075562-0.3933716-0.5211182c-0.0967407-0.213623-0.1451416-0.4710083-0.1451416-0.7713013
			v-2.4789429c0-0.3011475,0.052002-0.5576172,0.1560669-0.7712402c0.1049805-0.213562,0.2418823-0.3878784,0.4107056-0.5220337
			c0.1688843-0.1342163,0.3596191-0.2327881,0.5732422-0.2966309c0.2126465-0.0629883,0.4326172-0.0949707,0.65802-0.0949707
			c0.2975464,0,0.6069946,0.0474854,0.9291992,0.142395c0.321228,0.0949097,0.5986938,0.2409668,0.8323975,0.4390259
			l0.675354-1.0560303c-0.3139648-0.2610474-0.6835938-0.4545288-1.1098633-0.5813599
			c-0.4262085-0.1259766-0.8734131-0.1889648-1.3398438-0.1889648c-0.4180298,0-0.8187256,0.0584106-1.2001953,0.177063
			c-0.3824463,0.1186523-0.7192383,0.2929688-1.010437,0.5220947c-0.2911377,0.2299805-0.5220337,0.5083618-0.6936646,0.8369751
			c-0.1715698,0.3276367-0.2573853,0.7055054-0.2573853,1.1326904v3.0128784c0,0.427124,0.088562,0.8068237,0.265625,1.1381226
			c0.177063,0.3322144,0.4125366,0.6115112,0.7064209,0.8369751c0.2930298,0.2254639,0.6270752,0.3952026,1.0012817,0.5101929
			c0.3742065,0.1141357,0.7584839,0.1716309,1.152771,0.1716309c0.4499512,0,0.9190674-0.0830688,1.4055786-0.2492065
			c0.4864502-0.1660767,0.9108887-0.4545288,1.2732544-0.8661499v-3.3807373h-2.6432495V177.1192627z"/>
		<polygon fill="#E0B36F" points="187.4261322,180.3457031 193.0621796,180.3457031 193.0621796,179.1235352 
			188.802536,179.1235352 188.802536,176.8582153 192.4460907,176.8582153 192.4460907,175.6360474 188.802536,175.6360474 
			188.802536,173.3944092 193.0621796,173.3944092 193.0621796,172.1723022 187.4261322,172.1723022 		"/>
		<polygon fill="#E0B36F" points="201.2639008,177.8192749 201.1908417,177.8192749 199.8519135,175.7903442 
			197.3775482,172.1723022 196.0988007,172.1723022 196.0988007,180.3457031 197.4742889,180.3457031 197.4742889,174.7352295 
			197.5591278,174.7352295 198.8378754,176.668335 201.3478241,180.3457031 202.639328,180.3457031 202.639328,172.1723022 
			201.2639008,172.1723022 		"/>
		<polygon fill="#E0B36F" points="205.9415741,180.3457031 211.5775604,180.3457031 211.5775604,179.1235352 
			207.3179169,179.1235352 207.3179169,176.8582153 210.9615326,176.8582153 210.9615326,175.6360474 207.3179169,175.6360474 
			207.3179169,173.3944092 211.5775604,173.3944092 211.5775604,172.1723022 205.9415741,172.1723022 		"/>
		<polygon fill="#E0B36F" points="218.6146698,175.4580688 217.769455,178.3057861 217.6973724,178.3057861 
			216.8768158,175.5648804 215.8153534,172.1723022 214.3184662,172.1723022 216.9972992,180.3457031 218.4457855,180.3457031 
			221.1127777,172.1723022 219.6405487,172.1723022 		"/>
		<path fill="#E0B36F" d="M225.3934174,172.1723022l-2.907959,8.1734009h1.4603882l0.5914307-1.7670288h3.1014404
			l0.5667725,1.7670288h1.4959717l-2.907959-8.1734009H225.3934174z M224.9352264,177.4039917l0.5065308-1.6136475
			l0.6160889-1.9924927h0.0484009l0.638916,2.0755005l0.4946899,1.5306396H224.9352264z"/>
		<ellipse fill="#E0B36F" cx="164.0583801" cy="175.5067139" rx="1.3304138" ry="1.3078003"/>
		<ellipse fill="#E0B36F" cx="243.7039185" cy="175.5067139" rx="1.3304138" ry="1.3078003"/>
		<path fill="#E0B36F" d="M198.8196869,30.828125c-0.310791,0.0583496-0.5144043,0.3531494-0.4551392,0.6585083
			c0.0524292,0.2697754,0.2925415,0.4574585,0.5619507,0.4574585c0.0355225,0,0.0717773-0.0032959,0.1078491-0.0101318
			c2.2765503-0.4274292,4.4440918-0.6351318,6.6265869-0.6352539c0.0004883,0,0.0009766-0.0003052,0.0014648-0.0003052
			s0.0009155,0.0003052,0.0014038,0.0003052c2.1824951,0.0001221,4.3499756,0.2078247,6.6261597,0.6352539
			c0.036499,0.0068359,0.0725708,0.0101318,0.1080933,0.0101318c0.2693481,0,0.5094604-0.1878052,0.5618896-0.4574585
			c0.0593262-0.3052979-0.1443481-0.6001587-0.4549561-0.6585083c-0.3723755-0.0698853-0.737915-0.1243286-1.1052856-0.1829224
			l0.5318604-1.3798218c0.5558472-0.1237183,0.9807129-0.5901489,0.9807129-1.1733398
			c0-0.6763306-0.5598145-1.2265625-1.2478638-1.2265625s-1.2476807,0.5502319-1.2476807,1.2265625
			c0,0.3525391,0.1565552,0.6652832,0.3995972,0.8892212l-0.5766602,1.4960938
			c-1.3490601-0.1734009-2.677063-0.2693481-4.0048218-0.2908325v-2.367981
			c0.395813-0.2058716,0.6751099-0.6020508,0.6751099-1.0720215c0-0.6763306-0.5596313-1.2265625-1.2476807-1.2265625
			s-1.2476807,0.5502319-1.2476807,1.2265625c0,0.4699707,0.2792969,0.8661499,0.6751099,1.0720215v2.367981
			c-1.3277588,0.0214844-2.6557617,0.1173706-4.0048218,0.2908325l-0.5767212-1.4960938
			c0.243103-0.223938,0.3996582-0.5366821,0.3996582-0.8892212c0-0.6763306-0.5596313-1.2265625-1.2476807-1.2265625
			c-0.6881104,0-1.2477417,0.5502319-1.2477417,1.2265625c0,0.5831909,0.4248047,1.0496216,0.9805908,1.1733398l0.5319214,1.3798828
			C199.5576019,30.7038574,199.1920013,30.7582397,198.8196869,30.828125z"/>
		<path fill="#E0B36F" d="M173.3099213,51.8822021c0.5393677,5.6925049,1.4900513,13.2593994,3.128418,20.4643555
			c0.1761475,0.7745361,0.3707275,1.5198975,0.5684814,2.260498c0.0056152,0.0307617,0.0117188,0.0598755,0.022583,0.0896606
			c0.3443604,1.2819214,0.723999,2.510376,1.1346436,3.6931152c0.0071411,0.0400391,0.0256348,0.0767822,0.0418091,0.1151123
			c1.6862793,4.8179321,3.9226074,8.840271,6.7883911,12.1616211c1.5265503,1.7692871,3.1398315,3.2293091,4.7626953,4.5090332
			c0.0048218,0.0050659,0.0062866,0.0117798,0.0112915,0.0167236c0.0169067,0.0166016,0.0390015,0.0233154,0.057373,0.0374146
			c2.0793457,1.6325684,4.1729126,2.9639893,6.1220093,4.1921997c3.8175659,2.4055176,7.1143799,4.4831543,9.2209473,8.0079956
			c0.0044556,0.0074463,0.0130615,0.0100098,0.0177612,0.0171509c0.0469971,0.0718994,0.105835,0.1368408,0.1858521,0.1830444
			c0.001709,0.0009766,0.0037231,0.0004883,0.0054321,0.0014648c0.0790405,0.0446167,0.168335,0.0652466,0.2591553,0.069519
			c0.0084839,0.0003662,0.0164185,0.0067139,0.0249023,0.0067139c0.0001831,0,0.0004272-0.0001221,0.0006104-0.0001221
			s0.0003662,0.0001221,0.0005493,0.0001221c0.0084229,0,0.0162964-0.0062866,0.0247803-0.0066528
			c0.0908813-0.0042725,0.1802368-0.0249634,0.2593384-0.0695801c0.001709-0.0009766,0.0036621-0.0004883,0.0053711-0.0014648
			c0.0800781-0.0462036,0.138916-0.1112061,0.1859131-0.1830444c0.0046997-0.0071411,0.0133057-0.0097046,0.0177612-0.0171509
			c2.1066895-3.5248413,5.4035645-5.6022949,9.2208862-8.0079956c1.9490967-1.2282104,4.0426636-2.5596313,6.1220093-4.1921997
			c0.0183716-0.0140991,0.0404663-0.020813,0.057373-0.0374146c0.0050049-0.0049438,0.0064697-0.0116577,0.0112915-0.0167236
			c1.6228638-1.2797241,3.2362061-2.7397461,4.7627563-4.5090332c2.8655396-3.321106,5.1018677-7.3431396,6.788147-12.1607056
			c0.0164185-0.0387573,0.0350952-0.0758667,0.0422363-0.116272c0.4106445-1.1828613,0.7904053-2.411438,1.1347656-3.6934204
			c0.0106812-0.0292969,0.0166016-0.0579224,0.0221558-0.0881348c0.1978149-0.7409058,0.3925171-1.4865723,0.5687256-2.2614746
			c1.6382446-7.2043457,2.5888062-14.7705688,3.1281738-20.4629517c0.0004883-0.0114136,0.003418-0.0221558,0.0031738-0.0336304
			c0.5108643-5.401001,0.6512451-9.1072388,0.6539307-9.1824341c0.0081787-0.2329712-0.1303101-0.4467773-0.3486328-0.5379028
			c-14.5742798-6.0800171-23.7301025-8.4556885-32.6213989-8.4625244c-0.0011597,0-0.0020752-0.0006714-0.0032349-0.0006714
			c-0.0119019,0-0.0232544,0-0.0351562,0c-0.0005493,0-0.0010986,0-0.001709,0c-0.0115356,0-0.0236816,0-0.0350952,0
			c-0.0011597,0-0.0020752,0.0006714-0.0032349,0.0006714c-8.8908691,0.0068359-18.0482178,2.3828735-32.6216431,8.4625244
			c-0.2182617,0.0911255-0.3567505,0.3049316-0.3485718,0.5379028c0.0026855,0.0751953,0.1430664,3.7816162,0.6539917,9.1828003
			C173.3066864,51.861145,173.309494,51.8713379,173.3099213,51.8822021z M177.5991058,41.4821167
			c6.4237671,4.0575562,10.2546387,10.9234619,10.2546387,18.4338379c0,6.8585205-3.2943726,13.3234863-8.8388672,17.458252
			c-0.2816162-0.8529053-0.550354-1.7424927-0.8047485-2.6723022c4.7435913-3.9266357,7.3503418-9.8554077,6.9778442-15.9456787
			c-0.4208374-6.8807373-4.4712524-12.9212646-10.6582642-16.0349731
			C175.5818939,42.2877197,176.6030121,41.8760376,177.5991058,41.4821167z M181.4863739,43.0095825
			c2.6879883-0.9942017,5.1881104-1.8345337,7.5423584-2.5283813l-5.1483765,5.0606689
			C183.1501923,44.6462402,182.3550873,43.7967529,181.4863739,43.0095825z M227.4442596,45.5419312l-5.1484985-5.060791
			c2.3543091,0.6938477,4.8544922,1.5341797,7.5425415,2.5285034
			C228.9695282,43.796814,228.1744232,44.6462402,227.4442596,45.5419312z M233.7255096,41.4821777
			c0.9960938,0.3939209,2.0172119,0.805542,3.069397,1.2390747c-6.1871948,3.1137695-10.2375488,9.1542969-10.6583862,16.0349731
			c-0.3724976,6.0901489,2.2342529,12.0189209,6.9780273,15.9458008c-0.2544556,0.9297485-0.5231323,1.8193359-0.8047485,2.6721802
			c-5.5446167-4.1347656-8.8390503-10.5997925-8.8390503-17.458252
			C223.4707489,52.4056396,227.3016815,45.5397949,233.7255096,41.4821777z M235.3722992,63.7253418
			c-0.8510742-2.2199097-0.9523315-4.6303711-0.2427979-6.9503174c0.3413696-1.116333,0.8810425-2.163147,1.5588379-3.1138916
			C236.3726044,56.6984863,235.9456024,60.1478882,235.3722992,63.7253418z M236.8886566,51.6356812
			c-1.3139038,1.3586426-2.3051758,3.0137329-2.8560181,4.8153076c-0.9558105,3.1254883-0.5914917,6.4024048,1.0074463,9.2581177
			c-0.196106,1.1282959-0.4073486,2.2630615-0.6342163,3.3972168c-2.6635742-3.1713867-3.8425293-7.2373047-3.2147217-11.3427124
			c0.5951538-3.8931885,2.7659302-7.3258057,5.9949341-9.6002197
			C237.1053925,49.2095947,237.0072479,50.3746948,236.8886566,51.6356812z M237.2914276,46.7318115
			c-3.9093628,2.4277954-6.5446777,6.3637085-7.2328491,10.864502c-0.72229,4.7231445,0.7639771,9.4038086,4.0596313,12.9066772
			c-0.1132812,0.5338745-0.2288818,1.0670776-0.3496094,1.5978394c-0.1074829,0.4727173-0.2194824,0.9330444-0.3335571,1.3874512
			c-4.2037964-3.6955566-6.4949951-9.109436-6.1552734-14.6644287c0.4000244-6.5392456,4.28302-12.2698364,10.2003784-15.1781006
			C237.4440155,44.3532104,237.3840179,45.4066162,237.2914276,46.7318115z M228.6620331,75.6499634h-5.5195312l3.083374-3.0310059
			C226.9471283,73.6912842,227.762558,74.7040405,228.6620331,75.6499634z M229.805954,76.7755737
			c0.6671753,0.6109619,1.3741455,1.1851196,2.117981,1.7212524c-0.0606689,0.1697388-0.1203613,0.3421631-0.1820679,0.5087891
			h-4.6470337c-0.0001831-0.000061-0.0003662-0.000061-0.0006104,0h-5.3574829c-0.0001831,0-0.0003662-0.000061-0.0006104,0
			h-5.3573608c-0.0002441,0-0.0003662-0.000061-0.0006104,0h-5.3574219c-0.0001831-0.000061-0.0004272-0.000061-0.0006104,0
			h-5.3575439c-0.0002441-0.000061-0.0004272-0.000061-0.0006104,0h-5.3573608c-0.0002441,0-0.0003662-0.000061-0.0006104,0
			h-5.3575439c-0.0002441-0.000061-0.0003662-0.000061-0.0006104,0h-5.3572998c-0.0001831,0-0.0004272-0.000061-0.0006104,0
			h-5.3574219c-0.0002441-0.000061-0.0003662-0.000061-0.0006104,0h-4.6470337
			c-0.0617065-0.166626-0.1213989-0.3390503-0.1820679-0.5087891c0.7438354-0.5361328,1.4508057-1.1102905,2.1179199-1.7212524
			H229.805954z M230.4634857,82.0838623l-1.9863281-1.9525757h2.8294678
			C231.0346527,80.8088989,230.7529144,81.4579468,230.4634857,82.0838623z M228.6346283,85.5532227l-5.5157471-5.421936h3.7382812
			l3.0861816,3.0337524C229.5217743,84.0065918,229.085495,84.8031006,228.6346283,85.5532227z M226.4798431,88.7019043
			l-8.7189941-8.5706177h3.7382812l6.5198364,6.4088135C227.5200043,87.3079224,227.005661,88.0249023,226.4798431,88.7019043z
			 M221.1954803,94.0415039l-14.1506348-13.9102173h3.7381592l12.3980713,12.1873169
			C222.5269012,92.9318237,221.8638763,93.5036621,221.1954803,94.0415039z M191.0308075,94.7474365l2.0456543-2.0109253
			l4.5795288,4.501709h-3.0340576C193.4300995,96.4679565,192.2255707,95.6536255,191.0308075,94.7474365z M188.1434174,92.3184814
			l12.3982544-12.1871948h3.7379761l-14.1505737,13.9101562C189.4606781,93.50354,188.7976532,92.9317017,188.1434174,92.3184814z
			 M199.2759247,97.2382202l-5.3894653-5.2979126l11.7758179-11.5756226l11.7758789,11.5757446l-5.3894043,5.2977905H199.2759247z
			 M218.2481537,92.7366333l2.0455933,2.0108643c-1.1947021,0.906189-2.399231,1.720459-3.5910034,2.4907227h-3.0340576
			L218.2481537,92.7366333z M183.3056488,86.539978l6.5197144-6.4086914h3.7381592l-8.71875,8.5705566
			C184.3190155,88.0248413,183.8046112,87.3078003,183.3056488,86.539978z M181.3813324,83.1651001l3.0862427-3.0338135h3.7380981
			l-5.515686,5.421875C182.2391205,84.8031006,181.8029022,84.0065918,181.3813324,83.1651001z M180.0181122,80.1312866h2.8294678
			l-1.9863892,1.9526367C180.5717621,81.4580078,180.2901459,80.80896,180.0181122,80.1312866z M182.6625824,75.6499634
			c0.8994751-0.9459229,1.7149048-1.9585571,2.4360962-3.0309448l3.083313,3.0309448H182.6625824z M184.0447845,58.8238525
			c0.3397217,5.5550537-1.9515381,10.9689331-6.1551514,14.6643066c-0.1140747-0.4543457-0.2260132-0.9146729-0.3334961-1.3873291
			c-0.1207275-0.5308228-0.2363281-1.0640869-0.3496704-1.5980835c3.2955933-3.5025024,4.7818604-8.1831055,4.0596924-12.9064331
			c-0.6884155-4.5008545-3.3236084-8.4366455-7.2328491-10.8643188c-0.0925903-1.3252563-0.1526489-2.3788452-0.1888428-3.0863037
			C179.7617035,46.553894,183.6447601,52.2845459,184.0447845,58.8238525z M180.1335907,57.7636108
			c0.6276245,4.1054688-0.5513306,8.1713257-3.2147827,11.3425293c-0.2269287-1.1342163-0.4380493-2.269043-0.6341553-3.3973999
			c1.598938-2.8554077,1.9631958-6.1321411,1.0072021-9.2576904c-0.5508423-1.8013916-1.5421143-3.456543-2.8557129-4.8151855
			c-0.1186523-1.2609863-0.2167358-2.4261475-0.2974854-3.4723511
			C177.3674774,50.4378662,179.5381927,53.8703613,180.1335907,57.7636108z M176.1949921,56.7751465
			c0.7095947,2.3198853,0.6084595,4.7302856-0.2425537,6.9500122c-0.5731812-3.5769043-1.0001831-7.0261841-1.315918-10.0635376
			C175.3140717,54.6123047,175.8536835,55.6589966,176.1949921,56.7751465z M185.5603485,89.5893555
			c0.0014038-0.0013428,0.0032959-0.001709,0.0046997-0.0030518l9.6184692-9.4550171h3.7381592L187.328598,91.5273438
			C186.7285614,90.9235229,186.1382904,90.2791748,185.5603485,89.5893555z M205.6622772,106.1253052
			c-1.1688232-1.7177734-2.621521-3.1195679-4.2459717-4.3710327h8.4919434
			C208.2837372,103.0057373,206.8311005,104.4075317,205.6622772,106.1253052z M211.4531097,100.6286011h-11.581604
			c-1.0651245-0.734436-2.1729126-1.4406738-3.3057251-2.154541c-0.0579834-0.0365601-0.1165161-0.0735474-0.1746216-0.1101685
			h18.5424194c-0.0581055,0.0366211-0.1166382,0.0736084-0.1746216,0.1101685
			C213.6260834,99.1879272,212.5182953,99.894165,211.4531097,100.6286011z M223.9960785,91.5273438l-11.5930176-11.3960571
			h3.7380981l9.6186523,9.4550171c0.0013428,0.0013428,0.0032349,0.001709,0.0045776,0.0029907
			C225.1863861,90.2791748,224.5961761,90.9234619,223.9960785,91.5273438z M205.6630096,34.7922974
			c7.5847168,0,15.397522,1.7717896,26.7767334,6.1819458c-0.559021,0.3795776-1.1020508,0.7753296-1.6200562,1.1951904
			c-10.2512817-3.8372803-17.7938232-5.4806519-25.1566772-5.4807739v1.1258545
			c4.5066528,0.000061,9.0935669,0.6334229,14.3651123,2.0297241l6.7119751,6.5976562
			c-2.8349609,3.8551025-4.4144287,8.5317383-4.4144287,13.4740601c0,4.178894,1.1626587,8.2201538,3.2732544,11.7268677
			l-4.0764771,4.0071411h-31.7203369l-4.0764771-4.0070801c2.1105347-3.5067139,3.2732544-7.5480347,3.2732544-11.7269287
			c0-4.9423218-1.5795288-9.6190186-4.4143677-13.4741211l6.711853-6.5975342
			c5.2716064-1.3963013,9.8585815-2.0297241,14.3652954-2.0297852v-1.1258545
			c-7.362854,0.0001221-14.9050903,1.6434326-25.1567383,5.4807129c-0.5180054-0.4198608-1.0610962-0.8156128-1.6200562-1.1951904
			c11.3795776-4.4103394,19.1914062-6.1818848,26.7767944-6.1818848
			C205.6620941,34.7922974,205.6625824,34.7922974,205.6630096,34.7922974z"/>
		<path fill="#E0B36F" d="M208.53508,87.2944946c0-1.5571899-1.2886963-2.8238525-2.8728027-2.8238525
			s-2.8726807,1.2666626-2.8726807,2.8238525c0,0.8438721,0.3793945,1.6273804,1.031311,2.1610718l-0.7854614,4.742981
			c-0.0269775,0.1628418,0.0200806,0.3292236,0.1289673,0.4550781c0.1086426,0.1256714,0.2682495,0.1981201,0.4361572,0.1981201
			h2.0617065h2.0617065c0.1679077,0,0.3274536-0.0724487,0.4361572-0.1981201
			c0.1088257-0.1258545,0.1559448-0.2922363,0.1289673-0.4550781l-0.7855225-4.742981
			C208.1555634,88.921875,208.53508,88.1383667,208.53508,87.2944946z M207.0505219,93.7260742h-1.3882446h-1.3883057
			l0.7338867-4.4307251c0.0369873-0.2231445-0.0655518-0.4464722-0.2602539-0.5667114
			c-0.5089722-0.3148193-0.8128662-0.8509521-0.8128662-1.4341431c0-0.9362793,0.7750244-1.6981812,1.7275391-1.6981812
			c0.9526367,0,1.7277222,0.7619019,1.7277222,1.6981812c0,0.5831909-0.3039551,1.1193237-0.8130493,1.43396
			c-0.1947021,0.1204224-0.2973022,0.34375-0.2602539,0.5668945L207.0505219,93.7260742z"/>
		<path fill="#E0B36F" d="M205.5040131,40.4119263c-0.0369263-0.0073853-0.071228-0.0219116-0.1103516-0.0219116h-1.2416382
			c-0.3162842,0-0.5725708,0.2520142-0.5725708,0.5629272s0.2562866,0.5628662,0.5725708,0.5628662h0.8898315v1.6851196v1.8582153
			v0.6300659v9.1820679l-6.6420288-6.5291138l0.9343262-0.918457c0.2235718-0.2197876,0.2235718-0.5762329,0-0.7960205
			c-0.2238159-0.2197876-0.5862427-0.2197876-0.8100586,0l-0.9342041,0.9182739l-1.3287964-1.3062134l0.9342041-0.9185181
			c0.2236328-0.2198486,0.2236328-0.5762329,0-0.7960205l-0.4967651-0.4883423
			c-0.2237549-0.2197876-0.5861816-0.2197876-0.8099976,0c-0.2235718,0.2197876-0.2235718,0.5762939,0,0.7960815l0.09198,0.090271
			l-0.9342651,0.918457c-0.000061,0.000061-0.0001221,0.0001831-0.0001831,0.0002441l-1.3873291,1.3355713
			c-0.2260742,0.2174683-0.2298584,0.5738525-0.0085449,0.7959595c0.1122437,0.1126099,0.2606201,0.1691284,0.4091797,0.1691284
			c0.1445312,0,0.2893066-0.0535278,0.4006348-0.1607666l0.9868774-0.9500732l1.3289795,1.3063354l-0.9783325,0.9418945
			c-0.1091919,0.1051636-0.1711426,0.2489624-0.171875,0.3991699c-0.0009766,0.1503296,0.0594482,0.2946777,0.1675415,0.401001
			l0.5527954,0.5435181c0.1118774,0.1098633,0.2583618,0.164856,0.4049683,0.164856
			c0.1464844,0,0.2931519-0.0549927,0.4048462-0.164856c0.2237549-0.2197876,0.2237549-0.5761719,0.0001831-0.7960815
			l-0.1437988-0.1412354l0.5734863-0.5522461l7.2183228,7.0957031l-5.0112915,4.9261475
			c-1.5314941-1.1161499-3.7022095-1.0062256-5.0901489,0.3577271c-1.2374878,1.2166748-1.4536743,3.045105-0.6842041,4.4956665
			c-0.1487427,0.1994629-0.2481079,0.4285278-0.2481079,0.680481c0,0.3133545,0.1242065,0.6079712,0.3495483,0.8295288
			c0.2254639,0.2215576,0.5250244,0.3435669,0.843811,0.3435669c0.2548828,0,0.4865723-0.0968628,0.6887817-0.241394
			c0.5691528,0.2944336,1.1901245,0.4592285,1.8181763,0.4592285c1.0024414,0,2.0046997-0.375061,2.7680054-1.1251831
			c1.3875122-1.3639526,1.4993896-3.49823,0.3639526-5.0036011l4.4393311-4.3638916v7.3555298
			c-1.8856812,0.2751465-3.3419189,1.8619995-3.3419189,3.7910767c0,1.7258911,1.1694946,3.1726685,2.7646484,3.6589355
			c0.0917358,0.5579224,0.5632935,0.9929199,1.15625,0.9929199c0.5945435,0,1.0672607-0.4371338,1.1571045-0.9971313
			c1.5880127-0.4905396,2.7506714-1.9338379,2.7506714-3.6547241c0-1.9290161-1.4559937-3.5158691-3.3416748-3.7910767v-7.3543701
			l4.4381714,4.3627319c-1.135437,1.5053711-1.0235596,3.6396484,0.3639526,5.0036011
			c0.7633057,0.7502441,1.7657471,1.1253052,2.7680054,1.1253052c0.6280518,0,1.2491455-0.1647949,1.8183594-0.4592896
			c0.2022705,0.1444702,0.4337769,0.241333,0.6885986,0.241333c0.3187866,0,0.6185303-0.1220093,0.8440552-0.3435669
			c0.420166-0.4133301,0.4401245-1.0507812,0.1010132-1.5092773c0.7700195-1.4506836,0.5539551-3.27948-0.6838379-4.4963989
			c-1.3876953-1.3639526-3.5585327-1.4741211-5.09021-0.3578491l-5.0112915-4.9261475l7.2756958-7.1520386
			c0.0023804,0.0013428,0.0041504,0.00354,0.0065308,0.0048828c0.451355,0.2545776,0.9505615,0.3786011,1.4467773,0.3786011
			c0.7548828,0,1.5022583-0.2869873,2.0622559-0.8373413l0.5079346-0.4993896c0.2236328-0.2199097,0.2236328-0.5762939,0-0.7960815
			l-0.6228638-0.6123047c-0.2237549-0.2197876-0.5862427-0.2197876-0.8099976,0
			c-0.2236328,0.2197876-0.2236328,0.5762329,0,0.7960205l0.2180786,0.2142944l-0.1031494,0.1014404
			c-0.5630493,0.5534668-1.4385986,0.6675415-2.1291504,0.2783203c-0.2752686-0.1552734-0.5062866-0.3793945-0.6679077-0.6477051
			l-0.0530396-0.0880737c-0.411438-0.6829834-0.2999268-1.552063,0.2711182-2.1134033l0.0370483-0.036499l0.2507324,0.2463379
			c0.2233887,0.2197876,0.5860596,0.2197876,0.8098145,0c0.2236328-0.2199097,0.2236328-0.5762939-0.0001831-0.7960815
			l-0.6555786-0.6443481c-0.2233887-0.2197876-0.5859985-0.2197876-0.8098145,0l-0.4420166,0.4345703
			c-0.9411011,0.9251099-1.1246338,2.3573608-0.4468384,3.4827881l0.0530396,0.0881958
			c0.0635376,0.1054077,0.15271,0.1912231,0.2288208,0.2875977l-6.6641235,6.5509033V45.689209v-0.6300659V43.763855h1.2703247
			c0.3162842,0,0.5725708-0.2520142,0.5725708-0.5629272s-0.2562866-0.5628662-0.5725708-0.5628662h-1.2703247v-1.1222534h2.246521
			c0.3162842,0,0.5725708-0.2519531,0.5725708-0.5628662s-0.2562866-0.5629272-0.5725708-0.5629272h-2.8190918
			C205.5752411,40.3900146,205.5409393,40.404541,205.5040131,40.4119263z M199.4285736,66.1594849
			c-0.5230103,0.5142212-1.2182617,0.7973022-1.9580078,0.7973022s-1.4349976-0.2830811-1.9579468-0.7973022
			c-1.0797729-1.0612793-1.0797729-2.7883301,0-3.8497314c0.5229492-0.5142212,1.2182007-0.7973022,1.9579468-0.7973022
			s1.4349976,0.2830811,1.9580078,0.7973022C200.5082855,63.3711548,200.5082855,65.0982056,199.4285736,66.1594849z
			 M208.3835297,68.7346802c0,1.5010376-1.2421875,2.72229-2.769165,2.72229c-1.5269165,0-2.7692871-1.2212524-2.7692871-2.72229
			c0-1.5009766,1.2423706-2.7221069,2.7692871-2.7221069C207.1413422,66.0125732,208.3835297,67.2337036,208.3835297,68.7346802z
			 M215.7152557,62.3097534c1.0797119,1.0614014,1.0797119,2.7884521,0,3.8497314
			c-0.5230103,0.5142212-1.2184448,0.7973022-1.9580078,0.7973022c-0.7397461,0-1.4351807-0.2830811-1.9581299-0.7973022
			c-1.0797729-1.0612793-1.0797729-2.7883301,0-3.8497314c0.5229492-0.5142212,1.2183838-0.7973022,1.9581299-0.7973022
			C214.4968109,61.5124512,215.1922455,61.7955322,215.7152557,62.3097534z"/>
	</g>
</g>
</svg>
