<?xml version="1.0" encoding="utf-8"?>
<!-- Generator: Adobe Illustrator 21.0.0, SVG Export Plug-In . SVG Version: 6.00 Build 0)  -->
<svg version="1.1" id="Layer_1" xmlns="http://www.w3.org/2000/svg" xmlns:xlink="http://www.w3.org/1999/xlink" x="0px" y="0px"
	 viewBox="0 0 361 360" style="enable-background:new 0 0 361 360;" xml:space="preserve">
<style type="text/css">
	.st0{fill:#FFFFFF;}
</style>
<g>
	<g>
		<path class="st0" d="M180.7,356.1c-1,0-2-0.4-2.7-1.1L5.9,182.8c-1.5-1.5-1.5-4,0-5.5L178,5.3c1.5-1.5,4-1.5,5.5,0l172.1,172.1
			c1.5,1.5,1.5,4,0,5.5L183.5,354.9C182.7,355.7,181.7,356.1,180.7,356.1z M14.1,180.1l166.6,166.6l166.6-166.6L180.7,13.5
			L14.1,180.1z"/>
	</g>
	<g>
		<path class="st0" d="M266.8,270H94.7c-2.1,0-3.9-1.7-3.9-3.9V94c0-2.1,1.7-3.9,3.9-3.9h172.1c2.1,0,3.9,1.7,3.9,3.9v172.1
			C270.6,268.3,268.9,270,266.8,270z M98.5,262.3h164.3V97.9H98.5V262.3z"/>
	</g>
	<g>
		<path class="st0" d="M180.7,270c-1,0-2-0.4-2.7-1.1l-86-86c-1.5-1.5-1.5-4,0-5.5l86-86c1.5-1.5,4-1.5,5.5,0l86,86
			c1.5,1.5,1.5,4,0,5.5l-86,86C182.7,269.7,181.7,270,180.7,270z M100.1,180.1l80.6,80.6l80.6-80.6l-80.6-80.6L100.1,180.1z"/>
	</g>
	<g>
		<path class="st0" d="M223.7,227h-86c-2.1,0-3.9-1.7-3.9-3.9v-86c0-2.1,1.7-3.9,3.9-3.9h86c2.1,0,3.9,1.7,3.9,3.9v86
			C227.6,225.3,225.9,227,223.7,227z M141.6,219.2h78.3V141h-78.3V219.2z"/>
	</g>
	<g>
		<path class="st0" d="M180.7,227c-1,0-2-0.4-2.7-1.1l-43-43c-1.5-1.5-1.5-4,0-5.5l43-43c1.5-1.5,4-1.5,5.5,0l43,43
			c1.5,1.5,1.5,4,0,5.5l-43,43C182.7,226.6,181.7,227,180.7,227z M143.2,180.1l37.5,37.5l37.5-37.5l-37.5-37.5L143.2,180.1z"/>
	</g>
</g>
</svg>
