<?xml version="1.0" encoding="utf-8"?>
<!-- Generator: Adobe Illustrator 21.0.0, SVG Export Plug-In . SVG Version: 6.00 Build 0)  -->
<svg version="1.1" id="Layer_1" xmlns="http://www.w3.org/2000/svg" xmlns:xlink="http://www.w3.org/1999/xlink" x="0px" y="0px"
	 viewBox="0 0 361 360" style="enable-background:new 0 0 361 360;" xml:space="preserve">
<style type="text/css">
	.st0{fill:#FFFFFF;}
</style>
<g>
	<path class="st0" d="M201.8,223.1c-0.7,0.7-1.7,1.1-2.7,1.1h-18.2l0,0h-18.2c-1.1,0-2.2-0.5-3-1.4c-0.7-0.8-1.1-2.1-0.8-3.1
		l7.1-43.4c-5.9-4.6-9.3-11.5-9.2-19c0-13.4,10.8-24.3,24.3-24.3c6.5,0,12.6,2.5,17.1,7.1c4.5,4.5,7.1,10.7,7.1,17.1
		c0,7.5-3.4,14.4-9.2,19l7,43.5c0.1,1.1-0.1,2.3-0.8,3.1C201.9,222.9,201.8,223,201.8,223.1z M180.8,216.4h13.7l-6.8-41.3
		c-0.3-1.6,0.4-3.1,1.8-3.9c4.9-3,7.7-8.3,7.7-13.9c0-4.4-1.8-8.6-4.9-11.7s-7.2-4.8-11.7-4.9c-4.5-0.1-8.6,1.8-11.7,4.9
		c-3.1,3.1-4.8,7.2-4.9,11.7c0,5.7,2.9,10.8,7.7,13.9c1.3,0.8,2,2.4,1.8,3.9l-6.8,41.3H180.8z"/>
</g>
<g>
	<path class="st0" d="M180.8,354.6c-1,0-2-0.4-2.7-1.1L6,181.4c-1.5-1.5-1.5-4,0-5.5L178.1,3.8c1.5-1.5,4-1.5,5.5,0l172.1,172.1
		c1.5,1.5,1.5,4,0,5.5L183.6,353.5C182.8,354.2,181.8,354.6,180.8,354.6z M14.2,178.7l166.6,166.6l166.6-166.6L180.8,12.1
		L14.2,178.7z"/>
</g>
</svg>
