<?xml version="1.0" encoding="utf-8"?>
<!-- Generator: Adobe Illustrator 21.0.0, SVG Export Plug-In . SVG Version: 6.00 Build 0)  -->
<svg version="1.1" id="Layer_1" xmlns="http://www.w3.org/2000/svg" xmlns:xlink="http://www.w3.org/1999/xlink" x="0px" y="0px"
	 viewBox="0 0 361 360" style="enable-background:new 0 0 361 360;" xml:space="preserve">
<style type="text/css">
	.st0{fill:#FFFFFF;}
</style>
<g>
	<g>
		<path class="st0" d="M302.4,304.9H59c-2.1,0-3.9-1.7-3.9-3.9V57.6c0-2.1,1.7-3.9,3.9-3.9h243.4c2.1,0,3.9,1.7,3.9,3.9V301
			C306.3,303.1,304.5,304.9,302.4,304.9z M62.9,297.1h235.6V61.5H62.9V297.1z"/>
	</g>
	<g>
		<path class="st0" d="M269.3,271.8H92.1c-2.1,0-3.9-1.7-3.9-3.9V90.7c0-2.1,1.7-3.9,3.9-3.9h177.2c2.1,0,3.9,1.7,3.9,3.9v177.2
			C273.2,270.1,271.5,271.8,269.3,271.8z M96,264h169.5V94.6H96V264z"/>
	</g>
	<g>
		<path class="st0" d="M236.2,238.7H125.2c-2.1,0-3.9-1.7-3.9-3.9V123.8c0-2.1,1.7-3.9,3.9-3.9h111.1c2.1,0,3.9,1.7,3.9,3.9v111.1
			C240.1,237,238.4,238.7,236.2,238.7z M129,231h103.3V127.6H129V231z"/>
	</g>
	<g>
		<path class="st0" d="M203.2,205.6h-44.9c-2.1,0-3.9-1.7-3.9-3.9v-44.9c0-2.1,1.7-3.9,3.9-3.9h44.9c2.1,0,3.9,1.7,3.9,3.9v44.9
			C207.1,203.9,205.3,205.6,203.2,205.6z M162.1,197.9h37.2v-37.2h-37.2V197.9z"/>
	</g>
</g>
</svg>
