<?xml version="1.0" encoding="utf-8"?>
<!-- Generator: Adobe Illustrator 21.0.0, SVG Export Plug-In . SVG Version: 6.00 Build 0)  -->
<svg version="1.1" id="Layer_1" xmlns="http://www.w3.org/2000/svg" xmlns:xlink="http://www.w3.org/1999/xlink" x="0px" y="0px"
	 viewBox="0 0 361 360" style="enable-background:new 0 0 361 360;" xml:space="preserve">
<style type="text/css">
	.st0{fill:#FFFFFF;}
</style>
<path class="st0" d="M302.4,57.6H59c-2.1,0-3.9,1.7-3.9,3.9v243.4c0,2.1,1.7,3.9,3.9,3.9h243.4c2.1,0,3.9-1.7,3.9-3.9V61.5
	C306.3,59.3,304.5,57.6,302.4,57.6z M245.3,247.8c-22.4,22.4-48.2,40.3-76.2,53.2H85.6c54.3-5.9,104.6-29.9,143.8-69.1
	s63.2-89.5,69.1-143.8v83.5C285.6,199.6,267.8,225.4,245.3,247.8z M298.5,189.1v42.7c-9.4,13.2-20,25.8-31.7,37.5
	c-11.7,11.7-24.3,22.3-37.5,31.7h-42.7c23.3-12.5,45-28.4,64.2-47.7C270.1,234.1,286,212.4,298.5,189.1z M116.8,119.2
	c-14.5,14.5-33.5,22.9-53.9,23.8v-22.6c14.3-0.9,27.7-6.9,37.9-17.2C111.1,93,117.1,79.7,118,65.4h22.6
	C139.6,85.7,131.3,104.7,116.8,119.2z M148.4,65.4h22.6c-1,28.5-12.5,55.1-32.7,75.3s-46.8,31.8-75.3,32.7v-22.6
	c22.4-1,43.4-10.1,59.4-26.1C138.2,108.7,147.4,87.8,148.4,65.4z M62.9,181.2c30.5-1,59.1-13.3,80.8-35c21.7-21.7,34-50.3,35-80.8
	h22.5c-0.9,35.1-14.8,70-41.5,96.7c-26.8,26.8-61.6,40.6-96.7,41.6V181.2z M62.9,211.4c37.1-1,74-15.6,102.2-43.8
	s42.9-65.1,43.8-102.2h22.5c-1,42.9-17.8,85.5-50.4,118.2c-32.7,32.7-75.3,49.5-118.2,50.4V211.4z M62.9,241.7
	c44.9-1,89.5-18.5,123.6-52.7s51.7-78.8,52.7-123.6h22.5c-1,50.7-20.7,101-59.3,139.6c-38.6,38.6-88.9,58.3-139.6,59.3V241.7z
	 M269.5,65.4h22.6c-1,60.8-25.1,117.9-68.3,161s-100.2,67.3-161,68.3V272c52.6-1,105-21.5,145.1-61.6
	C248.1,170.4,268.6,118,269.5,65.4z M110.2,65.4c-0.9,12.3-6.1,23.7-14.9,32.4s-20.2,14-32.4,14.9V65.4H110.2z M242.3,301
	c10.5-8,20.5-16.8,29.9-26.3c9.5-9.5,18.2-19.5,26.3-29.9V301H242.3z"/>
</svg>
