<?xml version="1.0" encoding="utf-8"?>
<!-- Generator: Adobe Illustrator 22.0.1, SVG Export Plug-In . SVG Version: 6.00 Build 0)  -->
<svg version="1.1" id="Слой_1" xmlns="http://www.w3.org/2000/svg" xmlns:xlink="http://www.w3.org/1999/xlink" x="0px" y="0px"
	 viewBox="0 0 200 200" style="enable-background:new 0 0 200 200;" xml:space="preserve">
<style type="text/css">
	.st0{fill:#E0B36F;}
</style>
<path class="st0" d="M142.6,60.4C142.6,60.4,142.6,60.4,142.6,60.4c2.4,1.3,5,2,7.5,2c3.9,0,7.8-1.5,10.7-4.3l2.6-2.6
	c1.2-1.1,1.2-3,0-4.1l-3.2-3.2c-1.2-1.1-3-1.1-4.2,0c-1.2,1.1-1.2,3,0,4.1l1.1,1.1l-0.5,0.5c-2.9,2.9-7.5,3.5-11,1.4
	c-1.4-0.8-2.6-2-3.5-3.4l-0.3-0.5c-2.1-3.5-1.6-8,1.4-11l0.2-0.2l1.3,1.3c1.2,1.1,3,1.1,4.2,0c1.2-1.1,1.2-3,0-4.1l-3.4-3.3
	c-1.2-1.1-3-1.1-4.2,0l-2.3,2.3c-4.9,4.8-5.8,12.2-2.3,18.1L137,55c0.3,0.5,0.8,1,1.2,1.5l-34.6,34V42.8v-3.3v-6.7h6.6
	c1.6,0,3-1.3,3-2.9c0-1.6-1.3-2.9-3-2.9h-6.6v-5.8h11.6c1.6,0,3-1.3,3-2.9s-1.3-2.9-3-2.9h-14.6c-0.2,0-0.4,0.1-0.6,0.1
	c-0.2,0-0.4-0.1-0.6-0.1h-6.4c-1.6,0-3,1.3-3,2.9s1.3,2.9,3,2.9h4.6v8.7v9.6v3.3v47.6L63.2,56.6l4.8-4.8c1.2-1.1,1.2-3,0-4.1
	c-1.2-1.1-3-1.1-4.2,0L59,52.4l-6.9-6.8l4.8-4.8c1.2-1.1,1.2-3,0-4.1l-2.6-2.5c-1.2-1.1-3-1.1-4.2,0c-1.2,1.1-1.2,3,0,4.1l0.5,0.5
	l-4.8,4.8c0,0,0,0,0,0l-7.2,6.9c-1.2,1.1-1.2,3,0,4.1c0.6,0.6,1.4,0.9,2.1,0.9c0.7,0,1.5-0.3,2.1-0.8l5.1-4.9l6.9,6.8l-5.1,4.9
	c-0.6,0.5-0.9,1.3-0.9,2.1c0,0.8,0.3,1.5,0.9,2.1l2.9,2.8c0.6,0.6,1.3,0.9,2.1,0.9c0.8,0,1.5-0.3,2.1-0.9c1.2-1.1,1.2-3,0-4.1
	L56,63.5l3-2.9l37.4,36.8l-26,25.5c-7.9-5.8-19.2-5.2-26.4,1.9c-6.4,6.3-7.5,15.8-3.5,23.3c-0.8,1-1.3,2.2-1.3,3.5
	c0,1.6,0.6,3.2,1.8,4.3c1.2,1.1,2.7,1.8,4.4,1.8c1.3,0,2.5-0.5,3.6-1.3c3,1.5,6.2,2.4,9.4,2.4c5.2,0,10.4-1.9,14.4-5.8
	c7.2-7.1,7.8-18.1,1.9-25.9l23-22.6v38.1c-9.8,1.4-17.3,9.7-17.3,19.7c0,8.9,6.1,16.5,14.3,19c0.5,2.9,2.9,5.1,6,5.1
	c3.1,0,5.5-2.3,6-5.2c8.2-2.5,14.3-10,14.3-19c0-10-7.6-18.2-17.3-19.7v-38.1l23,22.6c-5.9,7.8-5.3,18.9,1.9,25.9
	c4,3.9,9.2,5.8,14.4,5.8c3.3,0,6.5-0.9,9.4-2.4c1,0.7,2.2,1.3,3.6,1.3c1.7,0,3.2-0.6,4.4-1.8c2.2-2.1,2.3-5.4,0.5-7.8
	c4-7.5,2.9-17-3.5-23.3c-7.2-7.1-18.5-7.6-26.4-1.9l-26-25.5L142.6,60.4z M68.6,149c-2.7,2.7-6.3,4.1-10.2,4.1s-7.4-1.5-10.2-4.1
	c-5.6-5.5-5.6-14.5,0-20c2.7-2.7,6.3-4.1,10.2-4.1s7.4,1.5,10.2,4.1C74.2,134.5,74.2,143.5,68.6,149z M115,162.3
	c0,7.8-6.4,14.1-14.4,14.1c-7.9,0-14.4-6.3-14.4-14.1c0-7.8,6.4-14.1,14.4-14.1C108.6,148.2,115,154.5,115,162.3z M153,129
	c5.6,5.5,5.6,14.5,0,20c-2.7,2.7-6.3,4.1-10.2,4.1c-3.8,0-7.4-1.5-10.2-4.1c-5.6-5.5-5.6-14.5,0-20c2.7-2.7,6.3-4.1,10.2-4.1
	C146.7,124.9,150.3,126.3,153,129z"/>
</svg>
