<?xml version="1.0" encoding="utf-8"?>
<!-- Generator: Adobe Illustrator 21.0.0, SVG Export Plug-In . SVG Version: 6.00 Build 0)  -->
<svg version="1.1" id="Layer_1" xmlns="http://www.w3.org/2000/svg" xmlns:xlink="http://www.w3.org/1999/xlink" x="0px" y="0px"
	 viewBox="0 0 595.2800293 841.8900146" enable-background="new 0 0 595.2800293 841.8900146" xml:space="preserve">
<path fill="#E0B36F" d="M347.6271057,371.5474854c0.0150452,0.0084839,0.0262146,0.0223694,0.0412598,0.0308533
	c2.8512878,1.6081848,6.0048218,2.3916626,9.1394958,2.3916626c4.7686768,0,9.4899292-1.8129272,13.0275269-5.2896118
	l3.2086792-3.1546936c1.4127197-1.3891907,1.4127197-3.6405334,0-5.0289612l-3.9347229-3.867981
	c-1.4134827-1.3884277-3.7033691-1.3884277-5.1168518,0c-1.4127197,1.3884277-1.4127197,3.6401367,0,5.0285645l1.3776245,1.3536987
	l-0.6515808,0.6408386c-3.5568542,3.4963074-9.0878296,4.2169189-13.4501343,1.7581787
	c-1.7388916-0.980896-3.1982727-2.396698-4.2192383-4.0916443l-0.335083-0.556366
	c-2.5990906-4.3144836-1.8946533-9.8045959,1.7127075-13.350647l0.2340393-0.2305603l1.5838928,1.5561523
	c1.4111938,1.3884277,3.7022095,1.3884277,5.1157227,0c1.4127197-1.3892212,1.4127197-3.6405334-0.0011597-5.0289612
	l-4.1413879-4.0704346c-1.4111633-1.3884277-3.7018127-1.3884277-5.1156921,0l-2.7922668,2.7452393
	c-5.9450684,5.8440552-7.1044617,14.8917542-2.8227539,22.0012207l0.3350525,0.5571289
	c0.4013977,0.6658936,0.9646912,1.2080078,1.4454956,1.816803l-42.098114,41.3829041v-57.9985046v-3.9802246v-8.1824951h8.0248108
	c1.9980164,0,3.6170044-1.5920105,3.6170044-3.5560913s-1.618988-3.5556946-3.6170044-3.5556946h-8.0248108v-7.0894165h14.1915588
	c1.9980164,0,3.6170044-1.5916138,3.6170044-3.5556946s-1.618988-3.5560913-3.6170044-3.5560913h-17.8085632
	c-0.2471313,0-0.4638367,0.0917664-0.6970825,0.1384277c-0.2332764-0.0466614-0.4499817-0.1384277-0.697113-0.1384277h-7.8435974
	c-1.9980164,0-3.6170044,1.5920105-3.6170044,3.5560913s1.618988,3.5556946,3.6170044,3.5556946h5.6211853v10.6451111v11.7385864
	v3.9802246v58.0042725l-41.9585419-41.2452393l5.9022675-5.802002c1.412323-1.3884277,1.412323-3.6401367,0-5.0285645
	c-1.4138794-1.3884277-3.7033844-1.3884277-5.1172485,0l-5.9014893,5.8008423l-8.3941803-8.2514954l5.9014893-5.8023987
	c1.4127197-1.3888245,1.4127197-3.6401367,0-5.0285645l-3.1381226-3.0849304c-1.4134979-1.3884277-3.7029877-1.3884277-5.1168671,0
	c-1.412323,1.3884277-1.412323,3.6405334,0,5.0289612l0.5810547,0.5702515l-5.9018707,5.802002
	c-0.0003815,0.0003967-0.0007782,0.0011597-0.0011597,0.0015259l-8.7639313,8.4369812
	c-1.4281464,1.3737793-1.4520416,3.6250916-0.0539856,5.0281982c0.7090607,0.7113647,1.6463776,1.0683899,2.5848389,1.0683899
	c0.9130249,0,1.8275909-0.3381348,2.5308685-1.0155945l6.2342224-6.001709l8.39534,8.2522888l-6.1802521,5.9500427
	c-0.6897888,0.6643372-1.081131,1.5727234-1.0857544,2.5216064c-0.0061798,0.9496765,0.3755341,1.8615417,1.0583801,2.5331726
	l3.4920807,3.4334717c0.7067413,0.6940308,1.6320953,1.0414429,2.5582275,1.0414429
	c0.9253693,0,1.8518829-0.3474121,2.5574646-1.0414429c1.4134979-1.3883972,1.4134979-3.63974,0.0011597-5.0289307
	l-0.9084015-0.8922119l3.6227875-3.4886169l45.5990601,44.8244629l-31.6569519,31.1191101
	c-9.6746521-7.0508728-23.3873291-6.3564453-32.1551208,2.2597961c-7.8173676,7.6859131-9.1830444,19.2363281-4.3222046,28.3997192
	c-0.9396362,1.2600098-1.567337,2.7070618-1.567337,4.2986755c0,1.9794922,0.7846375,3.8406372,2.2081451,5.2402344
	c1.4242859,1.3995972,3.3166504,2.1703491,5.3304596,2.1703491c1.6101379,0,3.0737457-0.6118774,4.35112-1.5249023
	c3.5954132,1.8599548,7.5181732,2.901001,11.4856567,2.901001c6.33255,0,12.6639404-2.3693237,17.4858398-7.1079407
	c8.7651062-8.6162415,9.4718323-22.0987549,2.2991333-31.6083679l28.0438232-27.5672607v46.4658203
	c-11.9120789,1.7381287-21.1113281,11.7624817-21.1113281,23.9487c0,10.9026794,7.3878479,20.0421753,17.4646301,23.1139526
	c0.5794983,3.5244751,3.5584106,6.2723999,7.3041687,6.2723999c3.7558289,0,6.7420349-2.7614136,7.3096008-6.2990112
	c10.0316772-3.0987549,17.3763428-12.2162781,17.3763428-23.0873413c0-12.1858215-9.1977234-22.2101746-21.1098022-23.9487
	v-46.4584961l28.036499,27.5599365c-7.172699,9.509613-6.4659424,22.9921265,2.2991333,31.6083679
	c4.8218994,4.7394104,11.1544495,7.1087036,17.4858398,7.1087036c3.9674988,0,7.8910217-1.0410156,11.4868164-2.9013977
	c1.277771,0.9126587,2.7402039,1.5245361,4.3499451,1.5245361c2.0138245,0,3.9073486-0.770752,5.3320312-2.1703491
	c2.6542358-2.6110535,2.780304-6.6379089,0.638092-9.5343018c4.8643188-9.1641541,3.4994202-20.7168884-4.3198853-28.4043274
	c-8.7662354-8.6162415-22.4797058-9.3121948-32.1554871-2.2605591l-31.6569824-31.1191101L347.6271057,371.5474854z
	 M257.4761963,479.4556885c-3.3039246,3.2483826-7.6959229,5.0366516-12.368988,5.0366516s-9.0650635-1.788269-12.3686066-5.0366516
	c-6.8210602-6.7042542-6.8210602-17.6142273,0-24.3192444c3.3035431-3.2484131,7.6955414-5.0366516,12.3686066-5.0366516
	s9.0650635,1.7882385,12.368988,5.0366516C264.296875,461.8414612,264.296875,472.7514343,257.4761963,479.4556885z
	 M314.0457764,495.7235107c0,9.4822693-7.8470459,17.1970825-17.4931641,17.1970825
	c-9.6457214,0-17.493927-7.7148132-17.493927-17.1970825c0-9.481842,7.8482056-17.1958923,17.493927-17.1958923
	C306.1987305,478.5276184,314.0457764,486.2416687,314.0457764,495.7235107z M360.3612366,455.1364441
	c6.8206787,6.7050171,6.8206787,17.6149902,0,24.3192444c-3.3039246,3.2483826-7.6970825,5.0366516-12.368988,5.0366516
	c-4.6730652,0-9.0662231-1.788269-12.369751-5.0366516c-6.8210754-6.7042542-6.8210754-17.6142273,0-24.3192444
	c3.3035278-3.2484131,7.6966858-5.0366516,12.369751-5.0366516
	C352.6641541,450.0997925,357.057312,451.888031,360.3612366,455.1364441z"/>
</svg>
